<svg id="svg" version="1.1" xmlns="http://www.w3.org/2000/svg" xmlns:xlink="http://www.w3.org/1999/xlink" width="400" height="333.33333333333337" viewBox="0, 0, 400,333.33333333333337"><g id="svgg"><path id="path0" d="M244.750 166.927 C 244.017 167.048,242.721 167.226,241.871 167.323 C 241.021 167.419,239.858 167.604,239.287 167.734 C 238.717 167.864,237.463 168.135,236.500 168.337 C 235.537 168.539,234.251 168.845,233.641 169.019 C 233.031 169.192,232.410 169.333,232.261 169.333 C 232.111 169.333,231.561 169.471,231.036 169.639 C 230.512 169.807,229.483 170.116,228.750 170.325 C 228.017 170.534,227.004 170.836,226.500 170.995 C 225.996 171.155,225.058 171.446,224.417 171.642 C 223.775 171.838,222.425 172.270,221.417 172.601 C 220.408 172.933,219.246 173.302,218.833 173.423 C 218.421 173.543,217.558 173.798,216.917 173.990 C 211.979 175.465,209.228 175.710,205.615 174.999 C 204.681 174.815,203.129 174.509,202.167 174.319 C 201.204 174.129,199.814 173.829,199.078 173.653 C 198.342 173.477,197.570 173.333,197.364 173.333 C 197.157 173.333,196.372 173.189,195.619 173.013 C 192.844 172.365,190.987 172.100,186.083 171.653 C 182.436 171.321,177.519 171.946,174.896 173.076 C 173.199 173.807,171.728 174.621,171.196 175.125 C 171.075 175.239,170.925 175.334,170.863 175.336 C 170.445 175.344,167.220 178.910,167.483 179.073 C 167.574 179.129,168.159 178.808,168.782 178.360 C 172.046 176.015,177.519 174.682,182.310 175.065 C 183.010 175.121,184.563 175.239,185.761 175.327 C 187.908 175.485,190.137 175.778,192.750 176.246 C 193.483 176.377,194.458 176.529,194.917 176.583 C 195.375 176.638,196.612 176.826,197.667 177.001 C 205.397 178.289,210.376 178.290,214.583 177.006 C 218.773 175.728,223.720 174.397,227.000 173.665 C 227.871 173.471,229.183 173.166,229.917 172.987 C 230.650 172.808,231.400 172.664,231.583 172.666 C 231.767 172.667,232.592 172.523,233.417 172.344 C 234.983 172.005,237.852 171.555,241.667 171.049 C 244.964 170.611,255.754 170.613,258.417 171.052 C 266.581 172.397,272.557 175.416,275.802 179.833 C 276.038 180.154,276.310 180.493,276.407 180.587 C 276.624 180.797,276.769 181.033,277.827 182.898 C 278.289 183.713,278.667 184.434,278.667 184.502 C 278.667 185.365,279.524 186.465,280.280 186.573 C 283.459 187.027,287.720 189.514,288.026 191.095 C 288.106 191.506,288.480 191.590,288.595 191.222 C 288.648 191.054,288.761 190.786,288.845 190.627 C 289.533 189.340,288.451 186.861,286.778 185.891 C 285.463 185.128,282.942 184.001,282.543 183.998 C 281.873 183.993,281.493 183.780,281.398 183.355 C 281.217 182.546,280.486 180.483,280.131 179.780 C 279.573 178.672,278.288 176.667,278.138 176.667 C 278.062 176.667,278.000 176.578,278.000 176.469 C 278.000 175.232,271.401 170.546,267.833 169.249 C 265.398 168.364,262.441 167.552,260.874 167.336 C 260.256 167.251,259.075 167.066,258.250 166.925 C 256.294 166.590,246.782 166.591,244.750 166.927 M242.917 177.080 C 238.298 177.785,235.278 178.830,230.912 181.231 C 229.446 182.037,225.469 184.864,224.083 186.085 C 222.077 187.853,220.225 189.661,218.485 191.549 C 215.618 194.661,215.599 194.683,213.670 197.083 C 212.712 198.275,211.831 199.350,211.712 199.473 C 211.593 199.595,211.291 199.970,211.041 200.306 C 210.495 201.040,206.642 205.882,206.510 206.000 C 206.459 206.046,206.144 206.421,205.810 206.833 C 203.934 209.154,201.127 212.132,199.730 213.284 C 198.342 214.429,197.243 215.213,196.792 215.381 C 196.509 215.486,196.372 216.000,196.626 216.000 C 197.734 216.000,202.434 213.549,204.119 212.092 C 204.231 211.995,204.418 211.841,204.536 211.748 C 206.454 210.238,209.038 207.806,214.443 202.420 C 218.033 198.843,221.437 195.504,222.008 195.000 C 222.579 194.496,223.205 193.926,223.398 193.733 C 223.592 193.541,224.231 192.990,224.820 192.509 C 225.408 192.028,225.987 191.548,226.106 191.442 C 226.696 190.917,227.034 190.653,228.660 189.444 C 229.626 188.726,230.623 188.016,230.875 187.867 C 231.127 187.717,231.333 187.536,231.333 187.464 C 231.333 187.392,231.407 187.333,231.497 187.333 C 231.587 187.333,232.093 187.053,232.622 186.711 C 233.151 186.369,233.733 186.006,233.917 185.904 C 234.100 185.802,234.588 185.524,235.000 185.284 C 236.592 184.361,239.634 182.925,241.250 182.334 C 241.800 182.133,242.616 181.826,243.064 181.651 C 243.512 181.476,244.008 181.333,244.168 181.333 C 244.328 181.333,244.786 181.217,245.187 181.075 C 249.080 179.696,257.342 179.315,262.708 180.266 C 263.080 180.332,263.333 180.311,263.333 180.214 C 263.333 179.740,256.299 177.590,253.667 177.258 C 253.254 177.206,252.057 177.052,251.006 176.915 C 248.398 176.576,245.887 176.627,242.917 177.080 M193.333 178.474 C 193.333 178.575,193.727 178.844,194.208 179.072 C 197.183 180.484,197.054 181.351,193.415 184.417 C 191.927 185.670,190.263 187.407,189.551 188.450 C 189.009 189.245,188.000 190.982,188.000 191.122 C 188.000 191.400,189.889 190.053,192.622 187.826 C 192.735 187.734,193.092 187.503,193.414 187.313 C 193.736 187.123,194.000 186.899,194.000 186.817 C 194.000 186.734,194.071 186.667,194.158 186.667 C 194.355 186.667,195.896 185.646,195.972 185.465 C 196.003 185.393,196.092 185.333,196.171 185.333 C 196.249 185.333,197.035 184.883,197.917 184.333 C 198.799 183.783,199.547 183.333,199.579 183.333 C 199.612 183.333,200.339 182.938,201.194 182.454 C 202.050 181.970,203.781 181.066,205.042 180.445 C 207.075 179.443,208.027 178.760,206.958 179.070 C 205.986 179.352,202.075 179.500,199.804 179.341 C 197.755 179.197,196.753 179.039,193.792 178.392 C 193.510 178.330,193.333 178.362,193.333 178.474 M167.333 181.229 C 167.333 182.321,170.065 183.728,174.000 184.663 C 175.488 185.017,177.997 186.444,177.999 186.938 C 178.000 187.041,178.107 187.215,178.238 187.324 C 179.932 188.729,178.970 193.857,176.377 197.250 C 176.307 197.342,176.031 197.754,175.764 198.167 C 175.255 198.952,171.413 203.795,171.070 204.083 C 170.961 204.175,170.176 205.037,169.324 206.000 C 167.689 207.849,166.765 208.847,165.000 210.670 C 161.672 214.106,155.889 220.207,154.710 221.525 C 154.246 222.043,153.728 222.614,153.559 222.795 C 152.740 223.669,151.994 224.511,151.162 225.500 C 150.660 226.096,150.175 226.665,150.083 226.766 C 149.992 226.866,149.654 227.267,149.333 227.657 C 149.012 228.047,148.594 228.528,148.402 228.725 C 147.482 229.674,142.984 235.547,142.080 236.980 C 141.986 237.129,141.686 237.581,141.413 237.985 C 140.597 239.192,140.452 239.422,139.596 240.866 C 138.620 242.510,136.906 245.807,136.588 246.651 C 136.464 246.980,136.237 247.588,136.085 248.000 C 135.932 248.412,135.710 248.975,135.590 249.250 C 134.641 251.430,135.002 251.649,136.299 249.679 C 136.636 249.168,136.971 248.675,137.044 248.583 C 137.226 248.354,139.011 245.861,139.419 245.267 C 139.601 245.001,139.862 244.617,140.000 244.414 C 140.137 244.211,140.587 243.575,141.000 243.001 C 141.412 242.427,141.825 241.839,141.917 241.694 C 142.008 241.549,142.174 241.331,142.286 241.209 C 142.397 241.088,142.620 240.766,142.780 240.494 C 142.941 240.222,143.131 240.000,143.203 240.000 C 143.275 240.000,143.333 239.927,143.333 239.838 C 143.333 239.656,146.943 234.833,147.677 234.034 C 147.821 233.878,148.417 233.150,149.002 232.417 C 149.587 231.683,150.307 230.821,150.601 230.500 C 150.896 230.179,151.312 229.718,151.527 229.476 C 153.561 227.177,155.644 225.006,161.100 219.500 C 172.301 208.194,175.209 205.125,177.934 201.728 C 179.604 199.646,179.815 199.376,180.083 198.974 C 180.175 198.837,180.613 198.182,181.057 197.518 C 183.940 193.207,184.732 189.300,183.330 186.312 C 181.739 182.919,179.374 181.990,171.085 181.498 C 169.437 181.401,168.015 181.249,167.927 181.160 C 167.691 180.924,167.333 180.965,167.333 181.229 M220.083 182.536 C 218.237 182.884,215.508 183.505,215.060 183.680 C 214.798 183.782,214.246 183.963,213.833 184.081 C 212.178 184.557,210.042 185.443,207.917 186.535 C 204.891 188.090,204.594 188.259,202.974 189.360 C 202.455 189.712,201.987 190.000,201.933 190.000 C 201.880 190.000,201.510 190.244,201.112 190.542 C 200.714 190.840,200.068 191.308,199.677 191.583 C 199.286 191.858,198.844 192.215,198.696 192.375 C 198.547 192.535,198.370 192.667,198.301 192.667 C 198.112 192.667,196.000 194.381,196.000 194.534 C 196.000 194.607,195.915 194.667,195.811 194.667 C 195.707 194.667,195.459 194.835,195.260 195.042 C 195.061 195.248,194.415 195.825,193.824 196.324 C 192.447 197.488,185.797 204.130,184.071 206.066 C 183.345 206.881,182.563 207.749,182.333 207.994 C 182.104 208.240,181.204 209.293,180.333 210.335 C 179.463 211.377,178.581 212.393,178.375 212.592 C 178.169 212.792,178.000 213.040,178.000 213.144 C 178.000 213.248,177.937 213.333,177.860 213.333 C 177.783 213.333,177.203 213.986,176.571 214.783 C 175.537 216.089,175.188 216.509,174.453 217.333 C 174.242 217.570,173.110 218.990,172.750 219.468 C 172.658 219.590,172.452 219.814,172.292 219.965 C 172.131 220.117,172.000 220.306,172.000 220.385 C 172.000 220.465,171.861 220.654,171.691 220.807 C 171.521 220.959,170.308 222.433,168.995 224.083 C 167.683 225.733,166.490 227.214,166.346 227.373 C 165.734 228.048,165.489 228.339,164.074 230.074 C 163.256 231.077,162.436 232.057,162.252 232.251 C 162.068 232.446,161.317 233.306,160.583 234.164 C 159.850 235.021,158.969 236.005,158.625 236.348 C 158.281 236.692,158.000 237.020,158.000 237.076 C 158.000 237.224,152.078 243.103,150.941 244.083 C 149.629 245.214,148.649 246.017,148.093 246.417 C 147.838 246.600,147.544 246.825,147.440 246.918 C 144.537 249.478,138.742 252.116,134.589 252.767 C 132.392 253.111,130.999 253.421,130.271 253.728 C 129.916 253.878,129.525 254.000,129.401 254.000 C 129.046 254.000,126.086 255.446,125.844 255.737 C 125.724 255.882,125.552 256.000,125.461 256.000 C 125.285 256.000,123.860 257.138,123.165 257.832 C 122.233 258.765,121.070 260.330,119.880 262.254 C 119.603 262.702,117.333 267.323,117.333 267.439 C 117.333 267.548,116.457 269.426,115.361 271.667 C 114.501 273.424,113.035 275.686,112.011 276.833 C 110.965 278.007,111.082 278.253,112.375 277.597 C 113.973 276.786,117.333 273.567,117.333 272.847 C 117.333 272.748,117.395 272.667,117.469 272.667 C 117.544 272.667,117.788 272.358,118.011 271.981 C 118.234 271.603,118.546 271.097,118.703 270.856 C 118.861 270.614,119.114 270.192,119.265 269.917 C 119.416 269.642,119.633 269.304,119.745 269.167 C 119.858 269.029,120.130 268.580,120.350 268.168 C 120.570 267.756,120.881 267.273,121.042 267.095 C 121.202 266.916,121.333 266.684,121.333 266.578 C 121.333 266.472,121.483 266.249,121.667 266.083 C 121.850 265.917,122.000 265.711,122.000 265.625 C 122.000 265.057,127.091 259.333,127.597 259.333 C 127.647 259.333,127.928 259.155,128.219 258.938 C 128.511 258.720,129.125 258.338,129.583 258.089 C 130.042 257.840,130.488 257.568,130.575 257.485 C 130.662 257.401,130.850 257.333,130.992 257.332 C 131.134 257.332,131.438 257.235,131.667 257.117 C 131.896 256.999,132.721 256.695,133.500 256.441 C 134.901 255.985,135.388 255.799,137.500 254.911 C 139.464 254.085,143.477 252.020,144.013 251.559 C 144.158 251.435,144.327 251.333,144.390 251.333 C 144.452 251.333,145.159 250.903,145.960 250.376 C 146.761 249.850,147.540 249.344,147.691 249.251 C 148.462 248.780,149.827 247.792,150.005 247.577 C 150.116 247.443,150.272 247.333,150.352 247.333 C 150.431 247.333,150.628 247.225,150.790 247.092 C 150.951 246.960,152.283 245.897,153.750 244.730 C 155.217 243.563,156.679 242.368,157.000 242.074 C 157.321 241.780,158.371 240.844,159.333 239.995 C 160.296 239.145,161.632 237.899,162.302 237.225 C 162.973 236.551,163.557 236.000,163.601 236.000 C 163.683 236.000,166.210 233.456,169.002 230.560 C 170.573 228.932,173.745 225.517,174.846 224.270 C 175.160 223.914,175.717 223.304,176.083 222.916 C 177.211 221.720,177.735 221.137,179.000 219.667 C 179.671 218.887,180.451 217.997,180.735 217.687 C 181.018 217.377,181.438 216.918,181.667 216.667 C 181.896 216.415,182.315 215.956,182.599 215.646 C 182.882 215.337,183.663 214.446,184.333 213.667 C 185.455 212.363,185.817 211.957,187.000 210.671 C 187.229 210.422,187.904 209.665,188.500 208.988 C 189.593 207.746,191.336 205.815,191.821 205.309 C 191.965 205.158,192.646 204.418,193.333 203.663 C 195.055 201.775,202.032 194.788,203.317 193.667 C 203.894 193.162,204.546 192.586,204.765 192.385 C 209.668 187.886,216.855 183.673,220.958 182.893 C 221.256 182.836,221.500 182.687,221.500 182.562 C 221.500 182.309,221.307 182.306,220.083 182.536 M249.251 190.125 C 250.220 195.999,249.250 201.988,246.449 207.417 C 245.768 208.738,245.243 209.633,244.977 209.927 C 244.806 210.117,244.667 210.326,244.667 210.393 C 244.667 210.553,243.369 212.322,242.929 212.762 C 242.739 212.951,242.282 213.439,241.913 213.845 C 239.830 216.138,236.232 218.330,233.688 218.856 C 231.645 219.278,232.219 219.564,234.870 219.447 C 239.786 219.228,243.728 217.118,247.843 212.500 C 250.410 209.621,252.433 204.849,252.826 200.750 C 253.015 198.780,253.353 198.006,254.025 198.001 C 254.085 198.000,254.777 197.700,255.563 197.333 C 256.349 196.967,257.039 196.667,257.096 196.667 C 257.153 196.667,257.436 196.555,257.725 196.418 C 258.978 195.824,263.298 194.746,265.667 194.437 C 269.055 193.994,271.262 194.104,277.211 195.009 C 281.905 195.724,284.592 195.367,286.643 193.755 C 288.266 192.480,288.175 192.345,286.095 192.934 C 284.251 193.456,281.873 193.110,277.333 191.659 C 274.936 190.893,274.131 190.666,273.788 190.659 C 273.584 190.655,273.117 190.541,272.750 190.406 C 269.885 189.347,261.369 189.797,258.703 191.149 C 258.546 191.229,257.967 191.458,257.417 191.658 C 256.867 191.859,255.461 192.503,254.294 193.090 L 252.170 194.157 252.078 193.703 C 251.737 192.025,248.991 188.549,249.251 190.125 M243.500 194.494 C 241.500 195.236,238.667 196.804,238.667 197.169 C 238.667 197.259,238.582 197.333,238.478 197.333 C 238.374 197.333,238.056 197.585,237.770 197.892 C 236.014 199.781,235.455 200.666,234.537 203.009 C 234.379 203.412,230.871 205.289,227.250 206.908 C 226.700 207.154,225.950 207.494,225.583 207.663 C 224.686 208.078,219.917 210.118,219.083 210.445 C 218.717 210.588,218.144 210.847,217.811 211.020 C 217.477 211.192,217.101 211.333,216.975 211.333 C 216.848 211.333,216.465 211.483,216.123 211.667 C 215.781 211.850,215.425 212.000,215.332 212.000 C 215.239 212.000,214.845 212.142,214.457 212.316 C 214.068 212.489,213.300 212.800,212.750 213.005 C 212.200 213.210,211.450 213.508,211.083 213.667 C 210.717 213.825,209.967 214.121,209.417 214.324 C 208.867 214.528,208.154 214.797,207.833 214.922 C 207.512 215.048,206.725 215.346,206.083 215.585 C 205.442 215.824,204.579 216.159,204.167 216.329 C 203.754 216.499,202.967 216.800,202.417 216.998 C 201.867 217.196,201.096 217.503,200.704 217.679 C 200.312 217.856,199.883 218.000,199.750 218.000 C 199.617 218.000,199.188 218.144,198.796 218.321 C 198.404 218.497,197.633 218.809,197.083 219.013 C 196.533 219.218,195.769 219.523,195.384 219.692 C 195.000 219.862,194.608 220.000,194.514 220.000 C 194.420 220.000,194.076 220.150,193.750 220.333 C 193.424 220.517,193.082 220.667,192.992 220.667 C 192.761 220.667,186.869 223.460,186.667 223.666 C 186.621 223.712,186.021 224.039,185.333 224.391 C 183.848 225.153,183.256 225.493,180.397 227.222 C 179.514 227.756,178.706 228.264,178.604 228.351 C 178.501 228.438,178.042 228.748,177.583 229.040 C 177.125 229.332,176.713 229.612,176.667 229.661 C 176.621 229.710,176.250 229.976,175.842 230.250 C 175.042 230.789,172.781 232.512,171.833 233.304 C 171.512 233.573,170.688 234.256,170.000 234.823 C 166.994 237.302,163.226 241.022,158.088 246.583 C 151.083 254.166,147.816 256.693,143.100 258.182 C 142.266 258.445,141.358 258.663,141.083 258.666 C 140.326 258.674,139.833 258.846,139.833 259.103 C 139.833 259.834,146.341 259.171,148.085 258.262 C 148.359 258.119,148.660 258.002,148.755 258.001 C 148.966 258.000,151.884 256.500,152.000 256.333 C 152.046 256.267,152.308 256.088,152.583 255.935 C 153.069 255.665,153.430 255.434,154.433 254.757 C 155.122 254.292,157.333 252.579,158.658 251.484 C 159.979 250.392,160.396 250.025,163.075 247.594 C 164.947 245.896,165.623 245.268,167.660 243.333 C 169.410 241.672,170.332 240.820,172.083 239.246 C 173.092 238.339,174.138 237.407,174.408 237.174 C 174.678 236.941,175.053 236.598,175.241 236.412 C 175.429 236.225,176.221 235.553,177.000 234.918 C 177.779 234.283,178.604 233.583,178.833 233.362 C 179.063 233.142,179.850 232.511,180.583 231.961 C 181.317 231.410,181.942 230.893,181.972 230.813 C 182.003 230.732,182.091 230.667,182.167 230.667 C 182.244 230.667,183.044 230.118,183.945 229.446 C 184.846 228.775,185.827 228.084,186.125 227.911 C 186.423 227.737,186.667 227.536,186.667 227.464 C 186.667 227.392,186.739 227.333,186.828 227.333 C 186.916 227.333,187.610 226.932,188.369 226.442 C 189.129 225.951,190.537 225.110,191.500 224.572 C 192.463 224.034,193.275 223.535,193.306 223.464 C 193.336 223.392,193.465 223.333,193.593 223.333 C 193.721 223.333,194.296 223.081,194.871 222.772 C 195.782 222.282,196.426 221.989,198.917 220.928 C 199.759 220.570,201.536 219.918,203.917 219.095 C 204.375 218.936,205.458 218.586,206.323 218.317 C 207.187 218.047,208.118 217.716,208.390 217.580 C 208.662 217.444,209.013 217.333,209.170 217.333 C 209.327 217.333,209.822 217.194,210.269 217.024 C 211.489 216.560,212.689 216.147,213.250 216.000 C 213.525 215.928,214.125 215.737,214.583 215.576 C 215.042 215.415,215.792 215.157,216.250 215.002 C 216.708 214.847,217.458 214.591,217.917 214.432 C 218.375 214.274,218.975 214.082,219.250 214.006 C 219.942 213.816,221.301 213.339,222.000 213.043 C 222.321 212.907,222.921 212.699,223.333 212.580 C 223.746 212.462,224.946 212.051,226.000 211.667 C 227.054 211.282,228.300 210.833,228.767 210.667 C 229.235 210.502,229.760 210.288,229.934 210.192 C 230.108 210.096,230.775 209.817,231.417 209.571 C 232.058 209.326,232.731 209.022,232.912 208.896 C 233.419 208.543,233.426 208.567,233.312 210.208 C 233.074 213.602,232.402 216.237,231.332 217.976 C 230.776 218.881,230.741 219.001,231.042 218.998 C 231.827 218.990,234.166 217.273,234.785 216.250 C 236.033 214.187,236.392 213.288,237.083 210.500 C 237.230 209.904,237.497 208.879,237.676 208.223 C 237.854 207.566,238.000 206.859,238.000 206.651 C 238.000 205.796,239.644 200.894,240.454 199.333 C 241.299 197.706,242.956 195.801,244.292 194.922 C 245.647 194.030,245.282 193.832,243.500 194.494 M138.005 256.743 C 137.636 257.243,137.333 257.724,137.333 257.812 C 137.333 257.900,137.277 257.997,137.208 258.028 C 137.087 258.082,136.172 259.254,135.667 260.003 C 135.529 260.207,135.342 260.459,135.250 260.563 C 135.158 260.666,134.821 261.095,134.500 261.516 C 133.051 263.416,128.188 268.495,127.603 268.720 C 127.455 268.776,127.333 268.886,127.333 268.963 C 127.333 269.040,126.733 269.549,126.000 270.093 C 125.267 270.638,124.667 271.140,124.667 271.208 C 124.667 271.277,124.588 271.333,124.493 271.333 C 124.397 271.333,123.926 271.615,123.445 271.958 C 122.482 272.647,122.195 272.835,121.333 273.336 C 121.013 273.523,120.525 273.813,120.250 273.981 C 119.328 274.544,118.429 275.036,116.500 276.033 C 114.512 277.061,114.206 277.261,114.370 277.425 C 114.506 277.561,116.732 277.235,117.833 276.917 C 119.224 276.516,120.877 275.991,121.250 275.831 C 122.311 275.379,124.596 274.282,124.667 274.191 C 124.712 274.132,125.111 273.896,125.552 273.667 C 125.993 273.438,126.473 273.119,126.619 272.958 C 126.765 272.798,126.953 272.667,127.036 272.667 C 127.163 272.667,128.036 272.038,128.773 271.417 C 128.881 271.325,129.282 270.991,129.664 270.674 C 131.968 268.763,134.384 265.921,136.260 262.917 C 137.117 261.543,138.383 258.601,138.661 257.333 C 138.732 257.012,138.845 256.544,138.913 256.292 C 139.110 255.560,138.746 255.741,138.005 256.743 M237.667 289.984 C 235.929 290.157,232.399 291.270,231.977 291.777 C 231.876 291.900,231.694 292.000,231.574 292.000 C 230.950 292.000,228.040 294.750,227.077 296.250 C 224.771 299.840,224.149 306.493,225.765 310.278 C 227.435 314.190,229.552 316.325,233.393 317.973 L 235.011 318.667 240.266 318.667 C 246.066 318.667,245.691 318.723,248.250 317.476 C 257.561 312.940,259.025 298.951,250.833 292.804 C 250.316 292.416,249.792 292.098,248.731 291.529 C 248.128 291.206,246.836 290.667,246.663 290.667 C 246.568 290.667,246.048 290.518,245.507 290.336 C 244.392 289.960,239.919 289.759,237.667 289.984 M30.741 290.182 C 30.678 290.283,30.723 293.035,30.840 296.298 C 31.042 301.949,30.997 309.667,30.724 316.111 L 30.617 318.638 36.350 318.559 C 42.399 318.476,43.329 318.369,45.083 317.554 C 46.099 317.082,47.333 316.319,47.333 316.162 C 47.333 316.085,47.465 315.980,47.625 315.928 C 48.099 315.775,49.175 314.134,49.603 312.912 C 51.102 308.623,48.440 304.055,44.026 303.343 L 43.250 303.217 43.917 302.936 C 47.504 301.421,48.710 299.871,48.693 296.795 C 48.681 294.668,48.301 293.622,47.110 292.441 C 45.283 290.629,43.866 290.325,36.833 290.237 C 33.946 290.202,31.419 290.133,31.219 290.085 C 31.018 290.038,30.803 290.081,30.741 290.182 M55.126 292.532 C 55.285 295.795,55.288 313.182,55.130 316.251 L 55.010 318.586 57.680 318.586 C 60.275 318.586,60.348 318.576,60.254 318.251 C 60.085 317.671,59.937 305.166,60.099 305.169 C 60.377 305.174,60.596 305.407,62.052 307.250 C 62.849 308.258,63.594 309.194,63.709 309.328 C 63.920 309.577,65.210 311.340,65.667 312.004 C 65.804 312.204,66.333 312.941,66.842 313.642 C 67.351 314.343,67.911 315.160,68.086 315.458 C 68.262 315.756,68.464 316.000,68.536 316.000 C 68.608 316.000,68.667 316.079,68.667 316.175 C 68.667 316.271,68.967 316.801,69.333 317.353 C 69.700 317.905,70.000 318.409,70.000 318.472 C 70.000 318.536,71.350 318.587,73.000 318.586 L 76.000 318.583 76.000 318.124 C 76.000 317.789,75.458 316.980,73.988 315.124 C 72.882 313.727,71.813 312.367,71.613 312.102 C 71.413 311.838,71.119 311.502,70.958 311.357 C 70.798 311.211,70.667 311.026,70.667 310.944 C 70.667 310.863,70.378 310.448,70.026 310.023 C 69.178 309.001,66.667 305.668,66.667 305.566 C 66.667 305.522,66.516 305.325,66.332 305.127 C 65.919 304.684,65.985 304.627,67.333 304.266 C 69.190 303.768,70.772 302.910,71.816 301.833 C 74.050 299.529,74.032 294.769,71.782 292.460 C 70.056 290.690,68.486 290.350,61.583 290.252 C 58.742 290.211,56.098 290.134,55.709 290.079 L 55.001 289.980 55.126 292.532 M80.103 293.356 C 80.292 297.709,80.293 311.110,80.106 315.353 L 79.961 318.623 87.772 318.586 C 94.383 318.556,95.572 318.514,95.507 318.317 C 95.465 318.188,95.433 317.457,95.437 316.691 L 95.442 315.299 94.263 315.384 C 91.257 315.602,85.322 315.877,85.246 315.802 C 85.069 315.625,84.841 311.440,84.837 308.304 L 84.833 305.024 85.792 304.904 C 86.599 304.802,90.075 304.972,93.632 305.287 L 94.514 305.365 94.382 304.891 C 94.309 304.630,94.264 303.863,94.280 303.187 L 94.311 301.957 93.114 302.060 C 92.455 302.117,90.312 302.213,88.351 302.274 L 84.785 302.385 84.888 298.151 C 84.945 295.822,85.038 293.715,85.096 293.467 L 85.202 293.018 87.226 293.105 C 89.918 293.220,94.504 293.478,94.900 293.536 C 95.193 293.580,95.219 293.453,95.240 291.874 L 95.262 290.165 93.423 290.255 C 92.411 290.304,91.266 290.378,90.878 290.419 C 90.119 290.498,82.989 290.243,81.103 290.068 L 79.956 289.962 80.103 293.356 M97.920 290.161 C 97.869 290.244,97.948 290.635,98.096 291.031 C 98.244 291.426,98.502 292.125,98.671 292.583 C 98.839 293.042,99.177 293.942,99.422 294.583 C 99.667 295.225,99.931 295.975,100.009 296.250 C 100.140 296.714,101.676 301.347,102.330 303.250 C 102.598 304.031,102.796 304.672,103.667 307.583 C 103.859 308.225,104.173 309.275,104.365 309.917 C 105.022 312.105,105.306 313.083,105.675 314.417 C 105.878 315.150,106.182 316.237,106.350 316.833 C 106.518 317.429,106.678 318.065,106.704 318.246 C 106.750 318.553,106.892 318.576,108.794 318.583 L 110.834 318.592 111.067 317.921 C 111.195 317.552,111.468 316.688,111.675 316.000 C 111.882 315.313,112.180 314.375,112.337 313.917 C 112.494 313.458,113.305 311.021,114.139 308.500 C 114.973 305.979,115.963 303.054,116.340 302.000 C 116.717 300.946,117.169 299.633,117.346 299.083 C 117.698 297.985,117.931 297.542,118.077 297.689 C 118.188 297.799,119.073 300.226,119.407 301.333 C 119.531 301.746,119.946 302.946,120.330 304.000 C 120.713 305.054,121.132 306.292,121.261 306.750 C 121.390 307.208,121.602 307.846,121.732 308.167 C 121.863 308.487,122.284 309.762,122.669 311.000 C 123.054 312.237,123.472 313.550,123.598 313.917 C 123.934 314.893,124.525 317.148,124.645 317.913 L 124.750 318.576 126.795 318.584 L 128.840 318.592 129.114 317.671 C 129.642 315.899,130.712 312.569,131.285 310.917 C 131.602 310.000,131.924 309.025,132.001 308.750 C 132.077 308.475,132.489 307.275,132.916 306.083 C 133.343 304.892,133.795 303.617,133.920 303.250 C 134.045 302.883,134.382 301.983,134.669 301.250 C 134.956 300.517,135.263 299.677,135.351 299.383 C 135.439 299.090,135.621 298.640,135.754 298.383 C 135.888 298.127,135.998 297.825,135.999 297.713 C 136.000 297.601,136.144 297.188,136.320 296.796 C 136.496 296.404,136.956 295.258,137.341 294.250 C 137.727 293.242,138.227 291.981,138.452 291.448 C 138.986 290.184,138.908 289.980,137.969 290.197 C 137.355 290.339,136.178 290.313,134.926 290.131 C 134.646 290.090,134.558 290.277,134.287 291.500 C 133.930 293.113,133.584 294.398,132.739 297.250 C 132.413 298.350,132.086 299.512,132.013 299.833 C 131.939 300.154,131.766 300.717,131.626 301.083 C 131.487 301.450,131.204 302.313,130.998 303.000 C 130.791 303.688,130.520 304.497,130.394 304.799 C 130.268 305.101,130.097 305.626,130.014 305.966 C 129.931 306.305,129.697 307.033,129.494 307.583 C 128.358 310.656,128.131 311.296,128.012 311.750 L 127.881 312.250 127.671 311.750 C 127.555 311.475,127.401 311.025,127.327 310.750 C 127.253 310.475,126.810 309.162,126.342 307.833 C 125.874 306.504,125.389 305.079,125.265 304.667 C 125.140 304.254,124.956 303.692,124.855 303.417 C 124.689 302.961,123.919 300.641,123.528 299.417 C 123.001 297.768,122.084 294.779,120.983 291.118 C 120.670 290.078,120.613 289.996,120.280 290.118 C 119.891 290.259,118.011 290.287,117.348 290.160 C 117.004 290.094,116.926 290.167,116.804 290.667 C 116.465 292.058,115.941 293.992,115.652 294.917 C 115.480 295.467,115.029 296.929,114.650 298.167 C 114.271 299.404,113.439 301.954,112.801 303.833 C 112.163 305.712,111.541 307.597,111.418 308.022 C 111.296 308.446,111.077 309.024,110.931 309.305 C 110.786 309.587,110.667 309.920,110.667 310.047 C 110.667 310.173,110.492 310.705,110.279 311.228 L 109.892 312.180 109.259 310.215 C 108.911 309.134,108.492 307.837,108.328 307.333 C 108.164 306.829,107.865 305.854,107.663 305.167 C 107.461 304.479,107.198 303.617,107.078 303.250 C 106.876 302.632,106.444 301.161,105.681 298.500 C 105.510 297.904,105.202 296.779,104.997 296.000 C 104.792 295.221,104.484 294.138,104.312 293.593 C 104.140 293.048,103.994 292.410,103.987 292.176 C 103.951 290.996,103.417 290.078,102.816 290.167 C 101.971 290.291,99.160 290.267,98.548 290.130 C 98.254 290.065,97.971 290.078,97.920 290.161 M142.257 290.155 C 142.208 290.234,142.243 291.375,142.333 292.691 C 142.749 298.715,142.685 313.798,142.227 317.751 L 142.130 318.586 144.818 318.586 L 147.505 318.586 147.392 316.838 C 147.257 314.743,147.216 298.712,147.333 293.667 L 147.417 290.083 146.833 290.167 C 145.968 290.290,143.495 290.268,142.881 290.130 C 142.587 290.065,142.306 290.076,142.257 290.155 M153.593 290.129 C 153.568 290.154,153.585 293.379,153.631 297.296 C 153.705 303.575,153.489 314.733,153.237 317.585 L 153.149 318.586 155.158 318.586 L 157.167 318.586 157.166 318.085 C 157.166 317.809,157.059 316.083,156.929 314.250 C 156.798 312.417,156.643 308.122,156.584 304.706 L 156.477 298.496 158.103 300.206 C 158.998 301.147,161.760 303.954,164.240 306.444 C 166.721 308.934,169.462 311.737,170.333 312.673 C 171.204 313.609,172.039 314.497,172.188 314.646 C 172.337 314.795,173.002 315.554,173.667 316.333 C 174.331 317.112,175.015 317.884,175.187 318.048 C 175.359 318.212,175.500 318.418,175.500 318.506 C 175.500 318.595,176.025 318.667,176.667 318.667 L 177.833 318.667 177.834 309.208 C 177.835 299.257,177.939 293.801,178.170 291.583 C 178.326 290.092,178.254 289.912,177.600 290.160 C 177.024 290.379,175.754 290.383,175.006 290.168 C 174.203 289.938,174.185 290.005,174.431 292.250 C 174.557 293.408,174.700 297.684,174.769 302.404 L 174.889 310.558 173.736 309.394 C 171.705 307.342,164.421 299.710,162.245 297.353 C 161.789 296.859,161.267 296.297,161.083 296.103 C 160.900 295.909,159.781 294.663,158.596 293.334 C 155.497 289.856,155.837 290.134,154.657 290.107 C 154.097 290.094,153.618 290.104,153.593 290.129 M194.401 290.191 C 194.365 290.251,194.415 291.264,194.514 292.442 C 194.708 294.763,194.619 316.915,194.411 318.053 L 194.294 318.690 201.105 318.622 C 207.311 318.560,208.050 318.523,209.417 318.202 C 211.970 317.602,214.417 316.605,215.434 315.750 C 215.543 315.658,215.959 315.328,216.358 315.015 C 217.116 314.421,218.394 312.947,218.807 312.191 C 219.452 311.009,219.895 310.009,220.110 309.251 C 220.240 308.792,220.431 308.117,220.533 307.750 C 221.396 304.649,220.567 299.182,218.714 295.755 C 218.401 295.175,215.935 292.667,215.679 292.667 C 215.582 292.667,215.365 292.548,215.196 292.403 C 214.935 292.180,214.025 291.746,212.583 291.159 C 210.704 290.393,208.230 290.172,201.026 290.126 C 197.419 290.102,194.438 290.132,194.401 290.191 M260.774 294.042 C 260.956 299.210,260.957 309.615,260.776 314.687 L 260.635 318.624 268.625 318.604 L 276.616 318.583 276.608 316.942 L 276.601 315.300 275.342 315.385 C 271.461 315.645,265.976 315.864,265.875 315.764 C 265.519 315.407,265.369 300.182,265.669 294.893 C 265.762 293.256,265.856 291.504,265.878 291.000 L 265.917 290.083 265.333 290.167 C 264.452 290.293,261.824 290.267,261.191 290.126 L 260.631 290.001 260.774 294.042 M280.443 290.124 C 280.397 290.198,280.434 291.144,280.526 292.227 C 280.709 294.394,280.620 317.470,280.426 318.168 L 280.310 318.586 283.008 318.586 L 285.706 318.586 285.601 317.418 C 285.543 316.776,285.448 314.019,285.391 311.292 L 285.286 306.333 287.140 306.333 C 291.864 306.333,295.517 304.987,297.309 302.587 C 299.416 299.765,299.372 295.029,297.219 292.741 C 295.283 290.683,293.756 290.321,286.667 290.237 C 283.871 290.204,281.345 290.135,281.055 290.083 C 280.764 290.032,280.489 290.050,280.443 290.124 M302.903 290.189 C 302.843 290.286,302.841 290.940,302.898 291.642 C 303.334 296.927,303.336 311.248,302.901 317.168 L 302.797 318.586 305.495 318.586 L 308.192 318.586 308.102 317.918 C 308.052 317.551,307.960 314.504,307.898 311.149 L 307.786 305.047 311.460 304.925 C 313.481 304.859,316.829 304.859,318.901 304.925 L 322.667 305.047 322.663 306.482 C 322.659 308.578,322.359 316.417,322.239 317.583 L 322.137 318.583 324.827 318.583 L 327.517 318.583 327.386 316.417 C 327.215 313.598,327.218 295.070,327.390 292.205 L 327.522 289.992 326.803 290.121 C 325.859 290.290,323.958 290.285,322.935 290.111 L 322.121 289.973 322.226 290.945 C 322.398 292.542,322.697 301.692,322.580 301.809 C 322.429 301.960,310.514 302.055,309.026 301.916 L 307.803 301.802 307.924 296.359 C 307.991 293.366,308.055 290.729,308.065 290.500 C 308.082 290.117,308.037 290.090,307.500 290.167 C 306.635 290.290,304.162 290.268,303.548 290.130 C 303.221 290.057,302.970 290.080,302.903 290.189 M333.415 290.211 C 333.376 290.324,333.449 292.067,333.578 294.083 C 333.800 297.566,333.820 313.402,333.604 314.750 C 333.560 315.025,333.479 316.001,333.424 316.918 L 333.324 318.586 336.011 318.586 L 338.698 318.586 338.558 315.085 C 338.376 310.562,338.376 298.090,338.559 293.549 L 338.701 290.015 338.059 290.133 C 337.218 290.286,334.733 290.283,334.035 290.128 C 333.658 290.044,333.465 290.070,333.415 290.211 M344.817 290.167 C 344.808 290.212,344.809 294.037,344.820 298.667 C 344.838 306.561,344.614 316.960,344.402 318.085 L 344.307 318.586 346.332 318.586 L 348.358 318.586 348.279 317.418 C 348.236 316.776,348.122 313.625,348.026 310.417 C 347.930 307.208,347.802 303.206,347.743 301.522 L 347.634 298.461 349.442 300.342 C 350.436 301.377,353.238 304.222,355.667 306.664 C 361.587 312.616,366.667 318.098,366.667 318.535 C 366.667 318.607,367.210 318.667,367.875 318.667 L 369.083 318.667 369.083 308.958 C 369.083 303.619,369.150 297.171,369.231 294.630 L 369.379 290.010 368.816 290.172 C 368.090 290.380,366.904 290.378,366.172 290.168 C 365.373 289.939,365.353 290.009,365.602 292.167 C 365.902 294.773,366.282 309.951,366.053 310.181 C 365.935 310.299,365.494 309.950,364.649 309.069 C 363.971 308.364,362.629 306.983,361.667 306.002 C 359.074 303.359,355.496 299.580,353.000 296.850 C 352.129 295.898,351.287 294.980,351.128 294.812 C 350.666 294.323,348.132 291.479,347.522 290.766 C 347.012 290.170,344.908 289.703,344.817 290.167 M243.167 292.562 C 248.522 294.028,250.704 297.433,250.709 304.333 C 250.714 310.905,248.569 314.602,243.776 316.282 C 241.402 317.114,237.392 316.784,235.599 315.609 C 235.367 315.457,235.116 315.333,235.041 315.333 C 234.899 315.333,232.667 313.232,232.667 313.098 C 232.667 313.057,232.384 312.587,232.039 312.053 C 229.322 307.858,229.585 300.103,232.580 296.083 C 233.391 294.995,235.200 293.333,235.574 293.333 C 235.627 293.333,235.988 293.187,236.377 293.008 C 238.165 292.184,241.086 291.992,243.167 292.562 M40.500 293.031 C 44.728 294.266,45.248 299.597,41.333 301.574 C 40.026 302.235,36.983 302.692,35.875 302.395 L 35.500 302.294 35.500 297.481 L 35.500 292.667 37.375 292.666 C 38.814 292.666,39.541 292.750,40.500 293.031 M65.334 293.084 C 67.658 293.858,68.777 295.471,68.623 297.826 C 68.398 301.260,65.774 303.148,61.208 303.162 L 59.833 303.167 59.835 298.542 C 59.836 295.998,59.883 293.635,59.940 293.292 L 60.044 292.667 62.063 292.667 C 63.772 292.667,64.274 292.731,65.334 293.084 M207.541 293.067 C 208.617 293.284,209.683 293.582,209.910 293.730 C 210.136 293.879,210.404 294.000,210.506 294.000 C 211.006 294.000,214.000 296.604,214.000 297.039 C 214.000 297.116,214.127 297.372,214.282 297.610 C 215.042 298.768,215.657 301.742,215.663 304.280 C 215.684 312.795,210.615 316.840,200.879 316.078 L 199.386 315.961 199.272 310.215 C 199.209 307.055,199.210 301.814,199.272 298.568 L 199.387 292.667 202.485 292.671 C 205.065 292.674,205.911 292.740,207.541 293.067 M289.836 293.021 C 293.352 293.910,295.031 296.962,293.663 299.977 C 293.482 300.376,293.333 300.789,293.333 300.894 C 293.333 301.094,291.934 302.667,291.756 302.667 C 291.700 302.667,291.450 302.811,291.202 302.987 C 290.528 303.465,288.126 304.000,286.657 304.000 L 285.377 304.000 285.274 303.375 C 285.137 302.548,285.138 296.686,285.275 294.443 L 285.384 292.667 286.910 292.667 C 287.916 292.667,288.914 292.787,289.836 293.021 M40.851 305.133 C 43.660 306.134,44.748 307.637,44.731 310.497 C 44.707 314.501,41.416 316.715,36.419 316.091 L 35.500 315.976 35.500 310.419 C 35.500 306.134,35.548 304.839,35.708 304.766 C 36.208 304.538,39.927 304.803,40.851 305.133 " stroke="none" fill="#141c44" fill-rule="evenodd"></path><path id="path1" d="M169.333 10.261 C 160.257 12.227,160.873 25.615,170.042 25.663 L 170.833 25.667 170.833 24.250 L 170.833 22.833 170.208 22.830 C 166.414 22.807,165.605 16.816,169.147 14.965 C 169.998 14.521,170.143 14.500,172.352 14.500 L 174.667 14.500 174.667 17.000 L 174.667 19.500 179.833 19.500 L 185.000 19.500 185.000 20.660 L 185.000 21.820 183.625 21.868 L 182.250 21.917 182.200 22.607 L 182.149 23.298 183.366 23.758 C 184.036 24.011,185.315 24.501,186.208 24.846 L 187.833 25.475 187.833 22.487 L 187.833 19.500 195.516 19.500 L 203.198 19.500 203.138 22.542 C 203.049 27.098,203.334 26.874,197.426 27.025 C 190.659 27.197,188.884 27.937,188.076 30.922 C 186.438 36.972,193.195 41.561,199.232 38.498 C 200.016 38.100,200.427 38.000,201.273 38.000 L 202.333 38.000 202.333 39.768 C 202.333 41.276,202.296 41.521,202.082 41.439 C 200.577 40.862,197.568 40.918,194.083 41.590 C 188.287 42.706,184.675 43.020,182.600 42.585 C 178.523 41.732,175.537 38.641,174.812 34.526 C 174.641 33.558,173.396 32.333,172.581 32.333 C 172.512 32.333,172.494 33.290,172.541 34.458 C 172.749 39.620,174.917 42.698,180.500 45.753 C 184.651 48.025,185.666 48.610,187.083 49.548 C 191.790 52.660,194.266 55.576,196.147 60.220 C 196.640 61.439,196.911 60.739,197.000 58.018 L 197.083 55.457 198.750 56.588 C 206.469 61.827,209.658 66.167,210.530 72.625 C 210.720 74.029,210.770 74.167,211.098 74.167 C 212.314 74.167,211.922 66.542,210.546 63.455 C 209.997 62.222,209.821 62.287,213.276 62.446 L 216.250 62.583 216.352 66.417 C 216.470 70.875,216.604 70.340,215.347 70.454 C 214.098 70.568,213.789 71.167,214.979 71.167 C 216.581 71.167,216.611 71.193,216.926 72.943 C 217.325 75.159,217.728 75.119,217.798 72.857 L 217.846 71.301 218.965 71.397 C 219.580 71.450,221.733 71.573,223.750 71.670 C 225.767 71.767,227.672 71.886,227.983 71.935 L 228.550 72.025 228.434 74.137 C 228.328 76.062,227.989 78.567,227.810 78.746 C 227.770 78.785,227.259 78.878,226.674 78.951 C 225.268 79.126,225.194 79.421,226.522 79.559 C 227.805 79.693,227.744 79.607,227.430 80.832 C 226.943 82.733,227.460 82.773,228.384 80.907 C 228.864 79.936,229.073 79.665,229.295 79.727 C 229.454 79.771,231.327 79.938,233.458 80.098 C 235.590 80.258,237.333 80.459,237.333 80.546 C 237.333 80.776,235.808 82.642,234.972 83.434 C 233.381 84.940,232.773 85.280,231.293 85.489 C 230.089 85.659,221.599 86.958,216.000 87.829 C 213.778 88.175,213.966 88.261,213.502 86.685 C 212.687 83.919,210.582 80.466,208.188 77.965 C 205.117 74.758,201.378 72.015,186.381 61.971 C 164.220 47.128,159.161 41.763,159.547 33.510 C 159.648 31.347,159.985 30.142,160.927 28.578 C 161.603 27.455,161.803 25.493,161.208 25.811 C 158.241 27.401,156.300 32.413,156.800 37.195 C 157.445 43.374,159.462 46.362,169.153 55.499 C 173.882 59.958,176.169 62.821,177.969 66.539 C 179.343 69.376,179.500 69.295,179.500 65.750 C 179.500 64.237,179.565 63.000,179.645 63.000 C 179.875 63.000,185.268 66.913,186.833 68.216 C 190.406 71.189,194.004 75.348,195.516 78.252 C 196.733 80.591,197.000 80.380,197.000 77.077 L 197.000 74.488 198.042 75.186 C 207.486 81.523,211.920 87.359,213.509 95.542 C 213.819 97.138,213.942 97.500,214.177 97.500 C 214.610 97.500,214.667 97.174,214.665 94.695 C 214.664 92.696,214.572 91.599,214.253 89.779 L 214.170 89.308 223.293 89.373 C 231.967 89.435,232.480 89.455,233.692 89.791 C 236.870 90.672,238.607 92.383,238.928 94.949 C 239.065 96.050,239.676 96.249,239.979 95.292 C 240.680 93.074,241.500 90.125,241.500 89.821 C 241.500 89.180,239.285 87.177,237.750 86.429 C 237.017 86.072,236.402 85.771,236.385 85.761 C 236.367 85.750,237.117 84.949,238.051 83.980 C 245.042 76.730,245.595 65.559,239.343 57.869 L 238.491 56.821 240.454 53.546 L 242.417 50.271 242.417 48.999 C 242.417 46.884,242.356 46.831,236.417 43.748 C 235.225 43.130,233.716 42.333,233.063 41.978 L 231.876 41.333 222.566 41.333 L 213.257 41.333 210.059 43.250 C 208.299 44.304,206.816 45.167,206.763 45.167 C 206.710 45.167,206.667 42.617,206.667 39.500 L 206.667 33.833 205.633 33.833 L 204.599 33.833 205.216 33.201 C 206.299 32.093,206.079 31.749,204.794 32.542 C 203.520 33.328,201.546 33.325,198.949 32.532 C 195.966 31.621,194.468 31.693,192.614 32.838 C 191.627 33.447,191.667 33.449,191.667 32.792 C 191.670 30.825,193.251 30.251,198.047 30.474 C 204.138 30.758,205.924 30.224,207.020 27.790 C 207.407 26.933,207.415 26.804,207.470 20.958 L 207.526 15.000 193.096 15.000 L 178.667 15.000 178.667 12.500 L 178.667 10.000 174.542 10.013 C 171.665 10.022,170.089 10.097,169.333 10.261 M198.547 34.307 C 198.937 34.462,198.053 35.357,197.130 35.742 C 195.808 36.293,193.036 35.944,193.610 35.298 C 194.425 34.381,197.282 33.808,198.547 34.307 M202.033 45.518 C 202.989 45.718,204.500 46.308,204.500 46.481 C 204.500 46.902,197.314 50.859,196.961 50.633 C 191.421 47.086,190.968 46.769,191.269 46.659 C 191.442 46.596,192.783 46.312,194.250 46.029 C 195.717 45.745,197.067 45.482,197.250 45.443 C 197.962 45.292,201.195 45.343,202.033 45.518 M234.273 47.260 C 236.323 48.319,238.000 49.235,238.000 49.294 C 238.000 49.509,235.417 53.709,235.244 53.775 C 235.051 53.849,233.000 52.688,233.000 52.504 C 233.000 52.442,233.188 51.840,233.417 51.167 C 233.646 50.493,233.833 49.885,233.833 49.816 C 233.833 49.673,229.941 47.500,229.685 47.500 C 229.282 47.500,229.393 47.854,230.083 48.769 C 230.968 49.940,230.947 49.793,230.347 50.622 L 229.860 51.294 228.555 50.966 C 221.423 49.172,213.076 51.999,208.492 57.759 L 207.651 58.817 206.284 57.470 C 205.532 56.729,204.110 55.519,203.125 54.781 C 201.073 53.245,201.143 53.357,201.960 52.903 C 202.303 52.712,205.281 50.931,208.578 48.944 L 214.572 45.333 222.559 45.333 L 230.545 45.333 234.273 47.260 M157.783 52.226 C 154.570 59.013,157.527 65.239,167.583 72.858 C 172.188 76.347,175.561 80.189,177.828 84.529 C 179.336 87.415,179.500 87.339,179.500 83.750 C 179.500 82.237,179.532 81.000,179.572 81.000 C 179.714 81.000,184.282 83.741,185.833 84.757 C 190.416 87.758,193.653 90.981,195.531 94.415 C 197.486 97.989,197.086 94.225,195.089 90.250 C 192.384 84.867,187.959 81.002,175.333 72.998 C 160.416 63.540,157.301 59.507,159.422 52.397 C 159.505 52.119,159.406 51.969,158.952 51.689 C 158.205 51.227,158.270 51.197,157.783 52.226 M224.697 54.467 C 225.178 54.958,227.155 60.233,226.940 60.449 C 226.804 60.584,220.025 61.029,219.722 60.922 C 219.478 60.837,220.452 57.460,221.368 55.216 C 221.713 54.370,221.740 54.348,222.486 54.281 C 223.375 54.202,224.533 54.299,224.697 54.467 M231.983 56.535 C 233.632 57.536,236.000 59.539,236.000 59.932 C 236.000 60.106,235.754 60.167,235.042 60.168 C 234.515 60.168,233.369 60.216,232.496 60.274 L 230.909 60.379 230.594 59.148 C 230.420 58.471,230.103 57.397,229.889 56.762 C 229.675 56.128,229.500 55.547,229.500 55.473 C 229.500 55.316,231.108 56.003,231.983 56.535 M216.837 57.851 C 216.652 58.987,216.500 60.163,216.500 60.464 C 216.500 60.764,216.406 61.043,216.292 61.083 C 215.979 61.191,210.450 61.506,210.365 61.420 C 209.968 61.024,214.018 57.322,216.017 56.254 C 217.320 55.558,217.237 55.398,216.837 57.851 M227.719 63.167 C 227.914 63.371,228.364 66.722,228.389 68.159 L 228.417 69.742 223.255 70.029 C 220.417 70.187,218.058 70.280,218.014 70.236 C 217.835 70.057,218.814 63.271,219.081 62.836 C 219.147 62.729,227.609 63.052,227.719 63.167 M237.866 63.603 L 238.648 63.695 239.140 64.983 C 239.589 66.159,240.272 68.957,240.139 69.079 C 240.108 69.106,238.396 69.215,236.333 69.319 C 234.271 69.424,232.359 69.526,232.084 69.546 L 231.585 69.583 231.627 67.833 C 231.650 66.871,231.608 65.457,231.535 64.691 L 231.401 63.298 234.242 63.405 C 235.805 63.463,237.435 63.553,237.866 63.603 M238.123 72.485 C 239.154 72.553,240.046 72.657,240.107 72.718 C 240.495 73.106,239.300 77.299,238.767 77.417 C 238.237 77.535,230.335 78.500,229.900 78.500 L 229.520 78.500 229.914 77.372 C 230.403 75.973,230.936 73.956,231.092 72.914 L 231.211 72.126 233.730 72.244 C 235.116 72.310,237.093 72.418,238.123 72.485 " stroke="none" fill="#f9d205" fill-rule="evenodd"></path><path id="path2" d="M150.880 62.792 C 150.927 116.183,150.950 120.322,151.213 121.266 C 151.986 124.052,153.774 125.758,157.208 126.990 C 157.735 127.179,158.560 127.476,159.042 127.650 C 160.052 128.015,163.710 129.164,165.417 129.652 C 168.925 130.656,175.039 132.013,178.333 132.518 C 178.929 132.610,180.054 132.790,180.833 132.919 C 181.612 133.047,183.075 133.234,184.083 133.333 C 185.092 133.432,186.367 133.584,186.917 133.670 C 192.104 134.482,207.106 134.437,214.083 133.590 C 217.690 133.152,221.161 132.653,222.833 132.332 C 223.704 132.164,224.717 131.983,225.083 131.927 C 226.617 131.697,231.865 130.451,234.750 129.632 C 240.309 128.055,245.998 125.944,246.000 125.458 C 246.000 125.390,246.082 125.333,246.183 125.333 C 246.836 125.333,248.302 123.175,248.897 121.338 L 249.250 120.250 249.293 62.792 L 249.337 5.333 200.083 5.333 L 150.830 5.333 150.880 62.792 M178.833 12.500 L 178.833 15.000 193.265 15.000 L 207.696 15.000 207.626 20.792 C 207.508 30.600,206.995 31.066,196.833 30.589 C 193.345 30.425,192.241 30.820,191.821 32.381 C 191.589 33.240,191.569 33.237,192.964 32.544 C 194.726 31.670,196.148 31.610,198.606 32.306 C 202.136 33.305,203.356 33.306,204.925 32.311 C 205.543 31.919,205.746 31.858,205.855 32.030 C 206.068 32.365,206.040 32.443,205.483 33.078 L 204.965 33.667 205.897 33.667 L 206.829 33.667 206.873 39.338 L 206.917 45.008 210.124 43.088 L 213.331 41.167 222.540 41.172 L 231.750 41.177 236.333 43.567 C 243.828 47.475,244.004 47.900,240.516 53.647 C 238.326 57.256,238.440 56.501,239.813 58.329 C 241.108 60.054,242.281 62.319,242.836 64.167 C 243.043 64.854,243.249 65.529,243.295 65.667 C 243.340 65.804,243.400 66.067,243.428 66.250 C 243.758 68.413,243.827 69.108,243.827 70.250 C 243.827 71.392,243.758 72.087,243.428 74.250 C 243.400 74.433,243.340 74.696,243.295 74.833 C 243.249 74.971,243.043 75.646,242.836 76.333 C 242.001 79.111,240.335 81.831,238.047 84.153 C 237.197 85.016,236.519 85.733,236.542 85.744 C 236.565 85.756,237.180 86.055,237.909 86.409 C 239.313 87.090,241.667 89.192,241.667 89.765 C 241.667 89.920,241.449 90.767,241.182 91.648 C 240.916 92.529,240.530 93.831,240.325 94.542 C 239.955 95.822,239.946 95.833,239.392 95.833 C 238.864 95.833,238.833 95.801,238.833 95.246 C 238.833 93.817,237.849 92.037,236.574 91.160 C 234.382 89.652,233.131 89.501,222.796 89.501 L 214.342 89.500 214.422 89.958 C 215.077 93.708,214.957 97.724,214.193 97.634 C 213.792 97.586,213.751 97.488,213.480 95.949 C 212.062 87.885,207.975 82.248,199.000 75.979 L 197.083 74.640 197.037 77.236 C 196.982 80.390,196.707 80.712,195.709 78.791 C 193.895 75.299,190.630 71.498,186.548 68.123 C 185.159 66.975,179.931 63.167,179.744 63.167 C 179.701 63.167,179.667 64.367,179.667 65.833 L 179.667 68.500 179.178 68.500 C 178.816 68.500,178.660 68.403,178.576 68.125 C 177.455 64.415,174.166 60.294,166.891 53.485 C 158.829 45.938,156.746 42.260,156.754 35.583 C 156.757 32.163,156.864 31.619,157.961 29.417 C 158.786 27.761,161.180 25.236,161.562 25.618 C 161.892 25.948,161.647 27.578,161.145 28.394 C 158.599 32.532,159.199 38.435,162.616 42.876 C 166.629 48.091,171.801 52.107,191.333 65.172 C 207.574 76.036,212.234 80.589,213.762 87.083 C 213.934 87.816,214.158 88.028,214.652 87.924 C 214.889 87.874,216.077 87.683,217.292 87.500 C 219.402 87.181,221.149 86.914,226.042 86.160 C 227.256 85.972,228.925 85.706,229.750 85.568 C 230.575 85.430,231.457 85.322,231.710 85.328 C 232.405 85.344,233.302 84.813,234.588 83.621 C 235.967 82.344,237.462 80.500,237.119 80.500 C 236.988 80.500,235.134 80.350,232.997 80.166 C 230.860 79.983,229.098 79.852,229.082 79.875 C 229.066 79.898,228.762 80.460,228.408 81.125 C 227.452 82.916,226.706 82.899,227.252 81.099 C 227.671 79.716,227.646 79.667,226.500 79.667 C 225.630 79.667,225.500 79.626,225.500 79.351 C 225.500 78.966,225.811 78.834,226.722 78.831 C 227.700 78.827,227.798 78.718,227.991 77.411 C 228.178 76.142,228.531 72.137,228.461 72.081 C 228.237 71.902,218.262 71.518,218.067 71.680 C 217.903 71.817,217.833 72.265,217.833 73.187 C 217.833 74.376,217.803 74.500,217.510 74.500 C 217.074 74.500,217.032 74.403,216.802 72.891 C 216.573 71.385,216.533 71.340,215.417 71.333 C 213.691 71.323,213.601 70.447,215.317 70.366 L 216.381 70.316 216.275 68.950 C 216.217 68.198,216.168 66.488,216.168 65.149 L 216.167 62.715 215.708 62.706 C 215.456 62.702,214.131 62.642,212.764 62.573 C 210.359 62.453,210.283 62.459,210.417 62.766 C 211.675 65.629,212.366 72.260,211.591 74.042 C 211.462 74.338,210.667 74.459,210.667 74.183 C 210.667 69.999,208.207 64.819,204.565 61.333 C 202.656 59.506,197.595 55.667,197.096 55.667 C 197.043 55.667,197.000 56.797,197.000 58.178 L 197.000 60.689 196.576 60.636 C 196.216 60.591,196.070 60.379,195.604 59.221 C 193.736 54.578,189.656 50.755,182.582 47.019 C 176.223 43.661,173.960 41.450,172.834 37.497 C 172.465 36.202,172.155 32.167,172.424 32.167 C 172.501 32.167,173.058 32.460,173.662 32.819 L 174.761 33.472 174.970 34.694 C 175.606 38.410,178.506 41.487,182.250 42.419 C 184.320 42.933,187.539 42.673,194.333 41.440 C 197.978 40.779,200.476 40.720,201.888 41.262 C 202.136 41.357,202.167 41.195,202.167 39.776 L 202.167 38.183 201.208 38.133 C 200.400 38.091,200.094 38.165,199.250 38.607 C 193.118 41.817,185.938 36.662,188.050 30.565 C 189.004 27.808,190.832 27.096,197.376 26.929 C 203.199 26.781,202.891 27.022,202.972 22.550 L 203.026 19.500 195.527 19.500 L 188.028 19.500 188.008 22.451 C 187.996 24.074,187.957 25.432,187.920 25.469 C 187.844 25.545,186.815 25.193,184.000 24.128 L 182.083 23.403 182.033 22.618 L 181.982 21.833 183.408 21.833 L 184.833 21.833 184.833 20.667 L 184.833 19.500 179.667 19.500 L 174.500 19.500 174.500 17.000 L 174.500 14.500 172.602 14.500 C 168.014 14.500,165.688 17.449,167.490 20.981 C 168.070 22.116,168.731 22.545,170.215 22.747 L 171.013 22.856 170.965 24.303 L 170.917 25.750 170.285 25.802 C 164.996 26.239,160.987 19.809,163.392 14.746 C 165.162 11.019,167.445 10.028,174.292 10.011 L 178.833 10.000 178.833 12.500 M195.468 34.390 C 194.711 34.603,193.503 35.302,193.501 35.528 C 193.500 35.667,195.020 36.000,195.654 36.000 C 196.649 36.000,198.883 34.815,198.537 34.471 C 198.290 34.224,196.248 34.171,195.468 34.390 M198.167 45.443 C 196.651 45.679,194.490 46.070,192.927 46.392 L 191.104 46.768 191.760 47.169 C 192.121 47.390,193.492 48.271,194.807 49.128 C 196.121 49.984,197.290 50.662,197.405 50.634 C 197.732 50.554,204.324 46.596,204.329 46.476 C 204.353 45.896,199.977 45.162,198.167 45.443 M208.106 49.327 C 204.636 51.423,201.732 53.202,201.653 53.281 C 201.573 53.360,202.191 53.939,203.047 54.585 C 203.892 55.224,205.268 56.407,206.106 57.213 L 207.628 58.679 208.498 57.586 C 213.025 51.897,221.068 49.167,228.404 50.828 C 229.222 51.013,229.900 51.146,229.910 51.124 C 229.921 51.102,230.126 50.817,230.364 50.492 L 230.799 49.901 230.066 48.921 C 229.321 47.926,229.200 47.602,229.502 47.415 C 229.663 47.316,232.961 48.969,233.679 49.510 L 234.024 49.770 233.596 50.997 C 233.360 51.672,233.167 52.313,233.167 52.421 C 233.167 52.590,235.168 53.908,235.251 53.793 C 235.268 53.769,235.794 52.887,236.420 51.833 C 237.045 50.779,237.662 49.793,237.789 49.642 C 237.917 49.490,237.961 49.331,237.886 49.289 C 237.672 49.167,235.118 47.817,232.806 46.606 L 230.696 45.500 222.556 45.509 L 214.417 45.517 208.106 49.327 M159.004 51.605 C 159.368 51.847,159.666 52.053,159.665 52.064 C 159.664 52.075,159.549 52.458,159.410 52.917 C 157.358 59.680,160.688 63.612,177.473 74.244 C 188.855 81.452,194.093 86.487,196.075 92.121 C 196.325 92.833,196.572 93.529,196.622 93.667 C 196.672 93.804,196.731 94.029,196.753 94.167 C 196.775 94.304,196.850 94.735,196.918 95.125 C 197.150 96.443,196.359 96.137,195.522 94.585 C 193.047 89.997,188.988 86.499,180.458 81.607 L 179.667 81.153 179.667 83.910 L 179.667 86.667 179.257 86.667 C 178.908 86.667,178.726 86.430,178.013 85.042 C 175.487 80.126,172.504 76.755,166.853 72.430 C 157.218 65.058,154.197 58.009,157.949 51.658 C 158.297 51.067,158.197 51.072,159.004 51.605 M222.142 54.451 C 221.899 54.488,221.661 54.646,221.613 54.801 C 221.564 54.956,221.179 56.090,220.757 57.321 C 220.334 58.552,219.923 59.852,219.842 60.211 L 219.695 60.863 221.973 60.745 C 223.225 60.681,224.867 60.580,225.622 60.522 L 226.994 60.417 226.414 58.750 C 226.095 57.833,225.537 56.465,225.174 55.708 L 224.515 54.333 223.549 54.358 C 223.018 54.372,222.385 54.414,222.142 54.451 M229.667 55.654 C 229.667 55.730,229.784 56.120,229.928 56.521 C 230.072 56.922,230.361 57.887,230.570 58.667 L 230.950 60.083 232.600 60.066 C 233.508 60.057,234.648 60.028,235.133 60.003 L 236.017 59.956 235.633 59.538 C 234.280 58.062,229.667 55.059,229.667 55.654 M215.754 56.522 C 214.179 57.435,212.708 58.633,211.744 59.786 C 211.301 60.316,210.821 60.891,210.678 61.063 C 210.408 61.385,212.128 61.387,215.345 61.067 L 216.274 60.974 216.635 58.457 C 217.062 55.475,217.166 55.703,215.754 56.522 M219.167 62.886 C 219.167 62.937,219.050 63.527,218.907 64.197 C 218.593 65.666,217.990 70.045,218.087 70.143 C 218.126 70.181,220.315 70.088,222.953 69.937 C 225.592 69.785,227.913 69.662,228.113 69.664 C 228.453 69.666,228.471 69.607,228.394 68.708 C 228.232 66.795,227.985 64.780,227.819 64.005 L 227.649 63.212 224.616 63.103 C 222.948 63.044,221.040 62.950,220.375 62.894 C 219.710 62.839,219.167 62.836,219.167 62.886 M231.587 64.022 C 231.654 64.419,231.714 65.821,231.719 67.136 L 231.729 69.528 232.823 69.434 C 233.424 69.382,234.817 69.298,235.917 69.248 C 238.988 69.106,239.797 69.001,239.902 68.729 C 240.036 68.379,239.424 65.897,238.913 64.719 L 238.474 63.708 235.279 63.593 C 233.521 63.530,231.944 63.438,231.774 63.389 C 231.495 63.308,231.477 63.369,231.587 64.022 M231.419 72.338 C 231.467 72.414,231.429 72.524,231.336 72.582 C 231.243 72.639,231.167 72.855,231.167 73.062 C 231.167 73.549,230.586 75.761,230.071 77.234 C 229.849 77.871,229.667 78.402,229.667 78.414 C 229.667 78.443,232.403 78.112,236.583 77.576 C 237.683 77.435,238.674 77.310,238.785 77.298 C 239.123 77.264,240.197 73.808,239.947 73.558 C 239.896 73.507,239.923 73.286,240.007 73.066 C 240.146 72.699,240.118 72.667,239.648 72.667 C 238.877 72.667,232.673 72.343,231.958 72.266 C 231.615 72.229,231.372 72.261,231.419 72.338 M235.230 98.108 C 236.610 98.367,238.066 98.851,238.566 99.217 C 238.877 99.444,238.880 99.424,237.729 103.375 C 237.600 103.818,237.421 103.732,236.931 102.991 C 235.035 100.127,228.772 99.711,226.013 102.265 C 222.555 105.466,222.546 114.239,225.996 117.689 C 228.708 120.401,234.220 120.924,237.956 118.824 C 238.436 118.554,238.867 118.333,238.914 118.333 C 239.269 118.333,238.970 121.148,238.589 121.398 C 234.999 123.750,226.478 123.500,222.404 120.923 C 216.440 117.150,215.598 106.700,220.839 101.478 C 223.992 98.337,229.535 97.038,235.230 98.108 M178.132 98.423 C 181.860 99.166,183.667 101.156,183.667 104.520 C 183.667 107.646,182.179 109.335,177.877 111.097 C 177.461 111.267,176.849 110.422,183.618 119.040 C 185.112 120.941,186.333 122.535,186.333 122.582 C 186.333 122.628,184.729 122.667,182.769 122.667 L 179.205 122.667 178.911 122.217 C 178.749 121.970,177.634 120.441,176.433 118.818 C 175.232 117.195,173.582 114.960,172.765 113.851 L 171.279 111.833 170.306 111.833 L 169.333 111.833 169.333 117.250 L 169.333 122.667 166.422 122.667 L 163.512 122.667 163.464 111.875 L 163.417 101.083 162.967 100.231 C 162.650 99.631,162.269 99.220,161.676 98.839 C 161.212 98.542,160.833 98.269,160.833 98.233 C 160.833 98.009,176.945 98.186,178.132 98.423 M206.667 98.645 C 211.779 100.177,212.369 106.108,207.638 108.397 L 206.488 108.953 207.239 109.056 C 213.115 109.861,214.620 117.700,209.526 120.960 C 207.253 122.415,205.497 122.663,197.464 122.665 L 191.512 122.667 191.464 112.042 C 191.408 99.655,191.385 99.517,189.311 98.658 C 188.194 98.195,189.003 98.148,197.125 98.208 C 205.147 98.268,205.457 98.282,206.667 98.645 M169.333 105.000 L 169.333 109.500 171.399 109.500 C 175.824 109.500,177.744 108.037,177.748 104.662 C 177.752 101.403,176.369 100.512,171.292 100.503 L 169.333 100.500 169.333 105.000 M197.167 104.250 L 197.167 108.000 199.048 108.000 C 203.175 108.000,204.870 106.864,204.870 104.099 C 204.870 101.306,203.547 100.512,198.875 100.503 L 197.167 100.500 197.167 104.250 M197.292 110.423 C 197.223 110.496,197.167 112.718,197.167 115.361 L 197.167 120.167 199.830 120.167 C 204.963 120.167,206.669 118.880,206.665 115.012 C 206.661 111.579,205.233 110.575,200.086 110.388 C 198.618 110.335,197.360 110.351,197.292 110.423 " stroke="none" fill="#045bac" fill-rule="evenodd"></path><path id="path3" d="M228.400 98.076 C 221.973 99.074,218.306 102.735,217.647 108.811 C 216.867 116.002,220.146 120.981,226.667 122.509 C 229.988 123.287,235.159 122.903,237.759 121.687 L 238.833 121.184 238.833 119.828 C 238.833 119.082,238.777 118.498,238.708 118.529 C 238.640 118.560,238.182 118.796,237.692 119.054 C 233.966 121.012,228.495 120.398,225.889 117.729 C 222.434 114.190,222.452 105.362,225.921 102.191 C 228.835 99.528,234.889 100.010,237.113 103.083 L 237.475 103.583 237.663 103.091 C 238.163 101.780,238.706 99.472,238.550 99.317 C 237.484 98.251,231.771 97.552,228.400 98.076 M161.167 98.275 C 161.167 98.357,161.426 98.564,161.743 98.734 C 163.588 99.728,163.661 100.248,163.664 112.375 L 163.667 122.500 166.414 122.500 L 169.162 122.500 169.206 117.125 L 169.250 111.750 170.261 111.701 L 171.271 111.652 175.094 116.836 C 177.196 119.686,179.001 122.129,179.104 122.263 C 179.260 122.466,179.868 122.499,182.713 122.462 L 186.135 122.417 185.192 121.230 C 182.783 118.196,177.411 111.289,177.366 111.167 C 177.338 111.092,177.563 110.977,177.866 110.912 C 181.206 110.192,183.500 107.601,183.500 104.548 C 183.500 101.189,181.952 99.367,178.417 98.567 C 177.081 98.265,161.167 97.995,161.167 98.275 M189.329 98.455 C 191.666 100.126,191.568 99.547,191.633 112.053 L 191.687 122.523 198.635 122.459 C 204.589 122.405,205.726 122.355,206.583 122.108 C 214.299 119.889,214.764 110.899,207.253 109.173 L 206.090 108.906 207.163 108.515 C 209.452 107.680,210.764 105.703,210.641 103.272 C 210.507 100.608,208.875 99.100,205.464 98.488 C 203.466 98.129,188.832 98.099,189.329 98.455 M175.277 100.733 C 177.093 101.217,177.834 102.355,177.832 104.658 C 177.828 108.116,176.006 109.549,171.583 109.571 L 169.250 109.583 169.206 105.042 L 169.161 100.500 171.789 100.502 C 173.483 100.503,174.722 100.585,175.277 100.733 M202.761 100.746 C 204.299 101.205,205.003 102.242,204.996 104.036 C 204.987 106.813,203.418 107.936,199.292 108.120 L 197.167 108.215 197.167 104.357 L 197.167 100.500 199.553 100.500 C 201.173 100.500,202.204 100.579,202.761 100.746 M204.214 110.816 C 206.137 111.572,206.942 113.034,206.798 115.509 C 206.595 119.016,204.950 120.182,200.042 120.298 L 197.167 120.366 197.167 115.334 L 197.167 110.302 200.208 110.369 C 202.881 110.428,203.367 110.483,204.214 110.816 " stroke="none" fill="#f9fafb" fill-rule="evenodd"></path><path id="path4" d="M174.566 17.000 C 174.566 18.329,174.592 18.873,174.624 18.208 C 174.655 17.544,174.655 16.456,174.624 15.792 C 174.592 15.127,174.566 15.671,174.566 17.000 M207.574 19.833 C 207.574 22.537,207.597 23.644,207.625 22.292 C 207.653 20.940,207.653 18.727,207.625 17.375 C 207.597 16.023,207.574 17.129,207.574 19.833 M166.875 18.750 C 166.877 19.117,166.911 19.247,166.951 19.040 C 166.991 18.832,166.990 18.532,166.948 18.373 C 166.906 18.214,166.874 18.383,166.875 18.750 M184.889 20.667 C 184.889 21.354,184.919 21.635,184.955 21.292 C 184.991 20.948,184.991 20.385,184.955 20.042 C 184.919 19.698,184.889 19.979,184.889 20.667 M203.052 24.083 C 203.053 24.633,203.084 24.838,203.121 24.539 C 203.158 24.239,203.157 23.789,203.119 23.539 C 203.081 23.288,203.051 23.533,203.052 24.083 M170.042 25.782 C 170.202 25.823,170.465 25.823,170.625 25.782 C 170.785 25.740,170.654 25.705,170.333 25.705 C 170.012 25.705,169.881 25.740,170.042 25.782 M200.542 26.948 C 200.702 26.990,200.965 26.990,201.125 26.948 C 201.285 26.906,201.154 26.872,200.833 26.872 C 200.512 26.872,200.381 26.906,200.542 26.948 M193.792 27.118 C 193.998 27.157,194.335 27.157,194.542 27.118 C 194.748 27.078,194.579 27.045,194.167 27.045 C 193.754 27.045,193.585 27.078,193.792 27.118 M194.958 30.454 C 195.256 30.491,195.744 30.491,196.042 30.454 C 196.340 30.417,196.096 30.387,195.500 30.387 C 194.904 30.387,194.660 30.417,194.958 30.454 M198.788 30.620 C 199.084 30.657,199.609 30.658,199.955 30.622 C 200.300 30.586,200.058 30.555,199.417 30.555 C 198.775 30.554,198.492 30.583,198.788 30.620 M201.792 30.618 C 201.998 30.657,202.335 30.657,202.542 30.618 C 202.748 30.578,202.579 30.545,202.167 30.545 C 201.754 30.545,201.585 30.578,201.792 30.618 M172.403 32.392 C 172.356 32.515,172.340 33.134,172.369 33.767 L 172.421 34.917 172.502 33.541 C 172.583 32.168,172.566 31.967,172.403 32.392 M205.083 33.333 L 204.604 33.833 205.635 33.833 L 206.667 33.833 206.667 39.500 C 206.667 42.617,206.723 45.167,206.792 45.167 C 206.860 45.167,206.879 42.598,206.833 39.458 L 206.750 33.750 205.855 33.699 L 204.960 33.648 205.342 33.241 C 205.553 33.017,205.688 32.833,205.644 32.833 C 205.599 32.833,205.347 33.058,205.083 33.333 M189.500 37.250 C 189.811 37.571,190.103 37.833,190.149 37.833 C 190.195 37.833,189.978 37.571,189.667 37.250 C 189.356 36.929,189.064 36.667,189.018 36.667 C 188.972 36.667,189.189 36.929,189.500 37.250 M177.500 39.917 C 177.811 40.237,178.103 40.500,178.149 40.500 C 178.195 40.500,177.978 40.237,177.667 39.917 C 177.356 39.596,177.064 39.333,177.018 39.333 C 176.972 39.333,177.189 39.596,177.500 39.917 M217.970 41.292 C 220.566 41.317,224.766 41.317,227.304 41.292 C 229.841 41.266,227.717 41.245,222.583 41.245 C 217.450 41.245,215.374 41.266,217.970 41.292 M175.750 42.500 C 176.201 42.958,176.608 43.333,176.654 43.333 C 176.700 43.333,176.368 42.958,175.917 42.500 C 175.465 42.042,175.058 41.667,175.013 41.667 C 174.967 41.667,175.299 42.042,175.750 42.500 M184.042 42.788 C 184.385 42.824,184.948 42.824,185.292 42.788 C 185.635 42.752,185.354 42.723,184.667 42.723 C 183.979 42.723,183.698 42.752,184.042 42.788 M164.326 45.042 C 164.735 45.477,165.091 45.833,165.118 45.833 C 165.243 45.833,165.111 45.684,164.375 44.993 L 163.583 44.250 164.326 45.042 M218.447 45.458 C 220.663 45.484,224.338 45.484,226.613 45.458 C 228.889 45.432,227.075 45.411,222.583 45.411 C 218.092 45.410,216.230 45.432,218.447 45.458 M166.167 46.885 C 166.167 46.914,166.410 47.158,166.708 47.427 L 167.250 47.917 166.760 47.375 C 166.304 46.870,166.167 46.757,166.167 46.885 M164.000 50.750 C 164.311 51.071,164.603 51.333,164.649 51.333 C 164.695 51.333,164.478 51.071,164.167 50.750 C 163.856 50.429,163.564 50.167,163.518 50.167 C 163.472 50.167,163.689 50.429,164.000 50.750 M222.875 50.456 C 223.310 50.490,224.023 50.490,224.458 50.456 C 224.894 50.422,224.537 50.393,223.667 50.393 C 222.796 50.393,222.440 50.422,222.875 50.456 M166.333 52.885 C 166.333 52.914,166.577 53.158,166.875 53.427 L 167.417 53.917 166.927 53.375 C 166.471 52.870,166.333 52.757,166.333 52.885 M168.667 55.083 C 168.978 55.404,169.270 55.667,169.315 55.667 C 169.361 55.667,169.144 55.404,168.833 55.083 C 168.522 54.762,168.230 54.500,168.185 54.500 C 168.139 54.500,168.356 54.762,168.667 55.083 M158.887 56.000 C 158.887 56.596,158.917 56.840,158.954 56.542 C 158.991 56.244,158.991 55.756,158.954 55.458 C 158.917 55.160,158.887 55.404,158.887 56.000 M212.406 58.875 L 211.917 59.417 212.458 58.927 C 212.963 58.471,213.077 58.333,212.948 58.333 C 212.919 58.333,212.675 58.577,212.406 58.875 M235.250 59.167 C 235.608 59.533,235.938 59.833,235.984 59.833 C 236.030 59.833,235.775 59.533,235.417 59.167 C 235.059 58.800,234.728 58.500,234.682 58.500 C 234.637 58.500,234.892 58.800,235.250 59.167 M234.958 60.118 C 235.165 60.157,235.502 60.157,235.708 60.118 C 235.915 60.078,235.746 60.045,235.333 60.045 C 234.921 60.045,234.752 60.078,234.958 60.118 M203.500 60.219 C 203.500 60.248,203.744 60.491,204.042 60.760 L 204.583 61.250 204.094 60.708 C 203.638 60.203,203.500 60.090,203.500 60.219 M231.958 60.284 C 232.165 60.324,232.502 60.324,232.708 60.284 C 232.915 60.245,232.746 60.212,232.333 60.212 C 231.921 60.212,231.752 60.245,231.958 60.284 M225.708 60.615 C 225.869 60.657,226.131 60.657,226.292 60.615 C 226.452 60.573,226.321 60.539,226.000 60.539 C 225.679 60.539,225.548 60.573,225.708 60.615 M219.650 60.883 C 219.727 60.961,220.044 60.998,220.354 60.966 C 220.903 60.910,220.899 60.906,220.213 60.825 C 219.825 60.779,219.572 60.806,219.650 60.883 M222.960 60.785 C 223.168 60.824,223.468 60.823,223.627 60.781 C 223.786 60.739,223.617 60.707,223.250 60.709 C 222.883 60.711,222.753 60.745,222.960 60.785 M210.444 61.111 C 210.187 61.368,210.372 61.498,210.958 61.473 C 211.578 61.447,211.579 61.446,211.039 61.379 C 210.739 61.342,210.537 61.242,210.590 61.156 C 210.701 60.976,210.608 60.947,210.444 61.111 M213.458 61.284 C 213.665 61.324,214.002 61.324,214.208 61.284 C 214.415 61.245,214.246 61.212,213.833 61.212 C 213.421 61.212,213.252 61.245,213.458 61.284 M211.295 62.454 C 211.594 62.491,212.044 62.490,212.295 62.452 C 212.545 62.414,212.300 62.384,211.750 62.385 C 211.200 62.386,210.995 62.417,211.295 62.454 M215.044 62.620 C 215.297 62.658,215.672 62.657,215.877 62.617 C 216.082 62.578,215.875 62.546,215.417 62.548 C 214.958 62.549,214.791 62.581,215.044 62.620 M221.961 62.954 C 222.261 62.991,222.711 62.990,222.961 62.952 C 223.212 62.914,222.967 62.884,222.417 62.885 C 221.867 62.886,221.662 62.917,221.961 62.954 M179.568 65.667 C 179.568 67.179,179.593 67.798,179.624 67.042 C 179.655 66.285,179.655 65.048,179.624 64.292 C 179.593 63.535,179.568 64.154,179.568 65.667 M216.232 65.167 C 216.232 66.404,216.258 66.910,216.290 66.292 C 216.322 65.673,216.322 64.660,216.290 64.042 C 216.258 63.423,216.232 63.929,216.232 65.167 M225.961 63.121 C 226.261 63.158,226.711 63.157,226.961 63.119 C 227.212 63.081,226.967 63.051,226.417 63.052 C 225.867 63.053,225.662 63.084,225.961 63.121 M233.125 63.451 C 233.331 63.491,233.669 63.491,233.875 63.451 C 234.081 63.411,233.912 63.379,233.500 63.379 C 233.088 63.379,232.919 63.411,233.125 63.451 M236.542 63.619 C 236.794 63.658,237.206 63.658,237.458 63.619 C 237.710 63.581,237.504 63.550,237.000 63.550 C 236.496 63.550,236.290 63.581,236.542 63.619 M231.542 64.917 C 231.544 65.283,231.578 65.414,231.618 65.206 C 231.658 64.999,231.656 64.699,231.615 64.540 C 231.573 64.380,231.540 64.550,231.542 64.917 M161.167 67.552 C 161.167 67.581,161.410 67.825,161.708 68.094 L 162.250 68.583 161.760 68.042 C 161.304 67.537,161.167 67.423,161.167 67.552 M211.705 68.333 C 211.705 68.654,211.740 68.785,211.782 68.625 C 211.823 68.465,211.823 68.202,211.782 68.042 C 211.740 67.881,211.705 68.012,211.705 68.333 M240.000 68.736 C 240.000 68.866,239.906 69.010,239.792 69.056 C 239.667 69.107,239.701 69.146,239.875 69.154 C 240.060 69.162,240.167 69.045,240.167 68.833 C 240.167 68.650,240.129 68.500,240.083 68.500 C 240.037 68.500,240.000 68.606,240.000 68.736 M216.372 69.333 C 216.372 69.654,216.406 69.785,216.448 69.625 C 216.490 69.465,216.490 69.202,216.448 69.042 C 216.406 68.881,216.372 69.012,216.372 69.333 M236.792 69.284 C 236.998 69.324,237.335 69.324,237.542 69.284 C 237.748 69.245,237.579 69.212,237.167 69.212 C 236.754 69.212,236.585 69.245,236.792 69.284 M243.720 70.167 C 243.720 70.762,243.750 71.006,243.787 70.708 C 243.824 70.410,243.824 69.923,243.787 69.625 C 243.750 69.327,243.720 69.571,243.720 70.167 M233.875 69.448 C 234.035 69.490,234.298 69.490,234.458 69.448 C 234.619 69.406,234.487 69.372,234.167 69.372 C 233.846 69.372,233.715 69.406,233.875 69.448 M227.292 69.784 C 227.498 69.824,227.835 69.824,228.042 69.784 C 228.248 69.745,228.079 69.712,227.667 69.712 C 227.254 69.712,227.085 69.745,227.292 69.784 M189.917 71.167 C 190.646 71.900,191.280 72.500,191.326 72.500 C 191.371 72.500,190.812 71.900,190.083 71.167 C 189.354 70.433,188.720 69.833,188.674 69.833 C 188.629 69.833,189.188 70.433,189.917 71.167 M224.375 69.948 C 224.535 69.990,224.798 69.990,224.958 69.948 C 225.119 69.906,224.987 69.872,224.667 69.872 C 224.346 69.872,224.215 69.906,224.375 69.948 M221.375 70.115 C 221.535 70.157,221.798 70.157,221.958 70.115 C 222.119 70.073,221.987 70.039,221.667 70.039 C 221.346 70.039,221.215 70.073,221.375 70.115 M218.292 70.284 C 218.498 70.324,218.835 70.324,219.042 70.284 C 219.248 70.245,219.079 70.212,218.667 70.212 C 218.254 70.212,218.085 70.245,218.292 70.284 M214.792 70.451 C 214.998 70.491,215.335 70.491,215.542 70.451 C 215.748 70.411,215.579 70.379,215.167 70.379 C 214.754 70.379,214.585 70.411,214.792 70.451 M218.127 71.451 C 218.334 71.491,218.634 71.490,218.794 71.448 C 218.953 71.406,218.783 71.374,218.417 71.375 C 218.050 71.377,217.920 71.411,218.127 71.451 M211.705 72.000 C 211.705 72.321,211.740 72.452,211.782 72.292 C 211.823 72.131,211.823 71.869,211.782 71.708 C 211.740 71.548,211.705 71.679,211.705 72.000 M221.044 71.620 C 221.297 71.658,221.672 71.657,221.877 71.617 C 222.082 71.578,221.875 71.546,221.417 71.548 C 220.958 71.549,220.791 71.581,221.044 71.620 M224.125 71.784 C 224.331 71.824,224.669 71.824,224.875 71.784 C 225.081 71.745,224.912 71.712,224.500 71.712 C 224.088 71.712,223.919 71.745,224.125 71.784 M227.127 71.951 C 227.334 71.991,227.634 71.990,227.794 71.948 C 227.953 71.906,227.783 71.874,227.417 71.875 C 227.050 71.877,226.920 71.911,227.127 71.951 M232.792 72.284 C 232.998 72.324,233.335 72.324,233.542 72.284 C 233.748 72.245,233.579 72.212,233.167 72.212 C 232.754 72.212,232.585 72.245,232.792 72.284 M235.877 72.453 C 236.131 72.491,236.506 72.490,236.711 72.451 C 236.916 72.411,236.708 72.380,236.250 72.381 C 235.792 72.382,235.624 72.415,235.877 72.453 M238.875 72.615 C 239.035 72.657,239.298 72.657,239.458 72.615 C 239.619 72.573,239.487 72.539,239.167 72.539 C 238.846 72.539,238.715 72.573,238.875 72.615 M228.372 74.333 C 228.372 74.654,228.406 74.785,228.448 74.625 C 228.490 74.465,228.490 74.202,228.448 74.042 C 228.406 73.881,228.372 74.012,228.372 74.333 M171.500 76.219 C 171.500 76.248,171.744 76.491,172.042 76.760 L 172.583 77.250 172.094 76.708 C 171.638 76.203,171.500 76.090,171.500 76.219 M207.917 77.667 C 208.368 78.125,208.775 78.500,208.821 78.500 C 208.867 78.500,208.535 78.125,208.083 77.667 C 207.632 77.208,207.225 76.833,207.179 76.833 C 207.133 76.833,207.465 77.208,207.917 77.667 M226.042 79.615 C 226.202 79.657,226.465 79.657,226.625 79.615 C 226.785 79.573,226.654 79.539,226.333 79.539 C 226.012 79.539,225.881 79.573,226.042 79.615 M179.500 83.769 L 179.500 86.539 179.071 86.457 C 178.793 86.404,178.699 86.432,178.803 86.536 C 179.427 87.160,179.582 86.659,179.629 83.866 C 179.662 81.901,179.727 81.184,179.863 81.268 C 179.978 81.340,180.005 81.310,179.933 81.192 C 179.594 80.644,179.500 81.203,179.500 83.769 M235.078 83.208 L 234.083 84.250 235.125 83.255 C 236.093 82.331,236.243 82.167,236.120 82.167 C 236.094 82.167,235.625 82.635,235.078 83.208 M237.833 84.250 C 237.428 84.662,237.135 85.000,237.181 85.000 C 237.226 85.000,237.595 84.662,238.000 84.250 C 238.405 83.837,238.699 83.500,238.653 83.500 C 238.607 83.500,238.238 83.837,237.833 84.250 M229.958 89.451 C 230.165 89.491,230.502 89.491,230.708 89.451 C 230.915 89.411,230.746 89.379,230.333 89.379 C 229.921 89.379,229.752 89.411,229.958 89.451 M214.726 94.583 C 214.725 95.408,214.754 95.767,214.788 95.380 C 214.823 94.993,214.824 94.318,214.789 93.880 C 214.755 93.442,214.726 93.758,214.726 94.583 M238.872 95.333 C 238.872 95.654,238.906 95.785,238.948 95.625 C 238.990 95.465,238.990 95.202,238.948 95.042 C 238.906 94.881,238.872 95.013,238.872 95.333 M214.500 97.306 C 214.500 97.412,214.331 97.509,214.125 97.519 C 213.816 97.535,213.805 97.553,214.059 97.618 C 214.392 97.704,214.802 97.413,214.614 97.225 C 214.551 97.162,214.500 97.199,214.500 97.306 " stroke="none" fill="#5f8a69" fill-rule="evenodd"></path><path id="path5" d="M230.961 97.787 C 231.261 97.825,231.711 97.824,231.961 97.786 C 232.212 97.748,231.967 97.717,231.417 97.718 C 230.867 97.719,230.662 97.750,230.961 97.787 M225.658 102.458 L 225.083 103.083 225.708 102.509 C 226.290 101.974,226.410 101.833,226.283 101.833 C 226.255 101.833,225.974 102.115,225.658 102.458 M163.578 112.667 C 163.578 118.212,163.599 120.481,163.625 117.708 C 163.651 114.935,163.651 110.398,163.625 107.625 C 163.599 104.852,163.578 107.121,163.578 112.667 M223.390 110.083 C 223.391 110.817,223.420 111.096,223.456 110.704 C 223.491 110.312,223.490 109.712,223.454 109.371 C 223.419 109.029,223.390 109.350,223.390 110.083 M201.375 110.448 C 201.535 110.490,201.798 110.490,201.958 110.448 C 202.119 110.406,201.987 110.372,201.667 110.372 C 201.346 110.372,201.215 110.406,201.375 110.448 M206.714 115.083 C 206.716 115.542,206.748 115.709,206.786 115.456 C 206.825 115.203,206.824 114.828,206.784 114.623 C 206.744 114.418,206.713 114.625,206.714 115.083 M212.545 115.167 C 212.545 115.579,212.578 115.748,212.618 115.542 C 212.657 115.335,212.657 114.998,212.618 114.792 C 212.578 114.585,212.545 114.754,212.545 115.167 M198.201 120.290 C 198.816 120.322,199.866 120.322,200.534 120.291 C 201.203 120.259,200.700 120.233,199.417 120.232 C 198.133 120.232,197.586 120.258,198.201 120.290 " stroke="none" fill="#5795c7" fill-rule="evenodd"></path><path id="path6" d="M175.042 98.286 C 175.294 98.324,175.706 98.324,175.958 98.286 C 176.210 98.248,176.004 98.217,175.500 98.217 C 174.996 98.217,174.790 98.248,175.042 98.286 M202.461 98.287 C 202.761 98.325,203.211 98.324,203.461 98.286 C 203.712 98.248,203.467 98.217,202.917 98.218 C 202.367 98.219,202.162 98.250,202.461 98.287 M169.246 105.042 L 169.250 109.583 171.250 109.591 L 173.250 109.599 171.294 109.544 L 169.339 109.490 169.290 104.995 L 169.242 100.500 169.246 105.042 M220.658 101.625 L 220.083 102.250 220.708 101.676 C 221.052 101.360,221.333 101.078,221.333 101.051 C 221.333 100.923,221.192 101.043,220.658 101.625 M191.540 112.708 L 191.500 122.667 197.542 122.627 L 203.583 122.588 197.626 122.542 L 191.669 122.496 191.625 112.623 L 191.581 102.750 191.540 112.708 M183.555 104.583 C 183.555 105.225,183.586 105.467,183.622 105.121 C 183.658 104.775,183.657 104.250,183.620 103.955 C 183.583 103.659,183.554 103.942,183.555 104.583 M197.958 108.123 C 198.440 108.157,199.227 108.157,199.708 108.123 C 200.190 108.089,199.796 108.062,198.833 108.062 C 197.871 108.062,197.477 108.089,197.958 108.123 M169.278 111.778 C 169.217 111.839,169.167 114.275,169.167 117.190 L 169.167 122.492 166.417 122.544 L 163.666 122.596 166.458 122.590 L 169.250 122.583 169.294 117.208 L 169.338 111.833 170.302 111.833 C 170.838 111.833,171.370 111.926,171.500 112.042 C 171.699 112.219,171.701 112.206,171.513 111.958 C 171.290 111.663,169.534 111.522,169.278 111.778 M225.500 117.385 C 225.500 117.414,225.744 117.658,226.042 117.927 L 226.583 118.417 226.094 117.875 C 225.638 117.370,225.500 117.257,225.500 117.385 M238.832 119.716 L 238.914 121.083 238.965 119.849 C 238.993 119.171,238.956 118.556,238.883 118.482 C 238.810 118.409,238.787 118.964,238.832 119.716 M181.042 122.624 C 182.027 122.654,183.640 122.654,184.625 122.624 C 185.610 122.595,184.804 122.571,182.833 122.571 C 180.862 122.571,180.056 122.595,181.042 122.624 M229.042 122.948 C 229.202 122.990,229.465 122.990,229.625 122.948 C 229.785 122.906,229.654 122.872,229.333 122.872 C 229.012 122.872,228.881 122.906,229.042 122.948 M232.127 122.951 C 232.334 122.991,232.634 122.990,232.794 122.948 C 232.953 122.906,232.783 122.874,232.417 122.875 C 232.050 122.877,231.920 122.911,232.127 122.951 " stroke="none" fill="#79acd4" fill-rule="evenodd"></path><path id="path7" d="M178.733 12.417 C 178.734 13.792,178.759 14.332,178.791 13.617 C 178.822 12.903,178.822 11.778,178.790 11.117 C 178.759 10.457,178.733 11.042,178.733 12.417 M187.902 22.583 C 187.902 24.233,187.927 24.886,187.958 24.033 C 187.988 23.181,187.988 21.831,187.957 21.033 C 187.927 20.236,187.902 20.933,187.902 22.583 M203.062 21.417 C 203.063 22.425,203.090 22.816,203.123 22.286 C 203.157 21.755,203.156 20.930,203.123 20.452 C 203.089 19.974,203.062 20.408,203.062 21.417 M182.019 22.532 C 182.009 22.962,182.059 23.350,182.132 23.395 C 182.204 23.440,182.238 23.201,182.206 22.863 C 182.108 21.833,182.040 21.711,182.019 22.532 M170.892 24.250 C 170.892 25.075,170.920 25.434,170.955 25.047 C 170.990 24.660,170.990 23.985,170.956 23.547 C 170.922 23.109,170.893 23.425,170.892 24.250 M161.498 26.633 L 161.579 27.750 161.632 26.767 C 161.661 26.227,161.624 25.724,161.551 25.650 C 161.477 25.576,161.453 26.018,161.498 26.633 M159.906 26.708 L 159.417 27.250 159.958 26.760 C 160.256 26.491,160.500 26.248,160.500 26.219 C 160.500 26.090,160.362 26.203,159.906 26.708 M198.961 26.954 C 199.261 26.991,199.711 26.990,199.961 26.952 C 200.212 26.914,199.967 26.884,199.417 26.885 C 198.867 26.886,198.662 26.917,198.961 26.954 M187.714 32.583 C 187.716 33.042,187.748 33.209,187.786 32.956 C 187.825 32.703,187.824 32.328,187.784 32.123 C 187.744 31.918,187.713 32.125,187.714 32.583 M201.243 38.119 L 202.155 38.183 202.212 39.759 L 202.269 41.334 202.260 39.709 L 202.250 38.083 201.291 38.070 L 200.332 38.056 201.243 38.119 M194.960 39.618 C 195.168 39.658,195.468 39.656,195.627 39.615 C 195.786 39.573,195.617 39.540,195.250 39.542 C 194.883 39.544,194.753 39.578,194.960 39.618 M198.292 40.954 C 198.590 40.991,199.077 40.991,199.375 40.954 C 199.673 40.917,199.429 40.887,198.833 40.887 C 198.237 40.887,197.994 40.917,198.292 40.954 M170.750 57.167 C 171.571 57.992,172.281 58.667,172.326 58.667 C 172.372 58.667,171.738 57.992,170.917 57.167 C 170.095 56.342,169.386 55.667,169.340 55.667 C 169.294 55.667,169.929 56.342,170.750 57.167 M215.542 61.115 C 215.702 61.157,215.965 61.157,216.125 61.115 C 216.285 61.073,216.154 61.039,215.833 61.039 C 215.512 61.039,215.381 61.073,215.542 61.115 M205.000 61.750 C 205.311 62.071,205.603 62.333,205.649 62.333 C 205.695 62.333,205.478 62.071,205.167 61.750 C 204.856 61.429,204.564 61.167,204.518 61.167 C 204.472 61.167,204.689 61.429,205.000 61.750 M162.583 63.667 C 163.035 64.125,163.442 64.500,163.487 64.500 C 163.533 64.500,163.201 64.125,162.750 63.667 C 162.299 63.208,161.892 62.833,161.846 62.833 C 161.800 62.833,162.132 63.208,162.583 63.667 M220.708 62.948 C 220.869 62.990,221.131 62.990,221.292 62.948 C 221.452 62.906,221.321 62.872,221.000 62.872 C 220.679 62.872,220.548 62.906,220.708 62.948 M224.627 63.118 C 224.834 63.158,225.134 63.156,225.294 63.115 C 225.453 63.073,225.283 63.040,224.917 63.042 C 224.550 63.044,224.420 63.078,224.627 63.118 M232.042 63.448 C 232.202 63.490,232.465 63.490,232.625 63.448 C 232.785 63.406,232.654 63.372,232.333 63.372 C 232.012 63.372,231.881 63.406,232.042 63.448 M235.375 63.615 C 235.535 63.657,235.798 63.657,235.958 63.615 C 236.119 63.573,235.987 63.539,235.667 63.539 C 235.346 63.539,235.215 63.573,235.375 63.615 M231.714 67.250 C 231.716 67.708,231.748 67.876,231.786 67.623 C 231.825 67.369,231.824 66.994,231.784 66.789 C 231.744 66.584,231.713 66.792,231.714 67.250 M216.209 67.917 C 216.211 68.283,216.245 68.414,216.285 68.206 C 216.324 67.999,216.323 67.699,216.281 67.540 C 216.239 67.380,216.207 67.550,216.209 67.917 M223.042 71.782 C 223.202 71.823,223.465 71.823,223.625 71.782 C 223.785 71.740,223.654 71.705,223.333 71.705 C 223.012 71.705,222.881 71.740,223.042 71.782 M234.708 72.448 C 234.869 72.490,235.131 72.490,235.292 72.448 C 235.452 72.406,235.321 72.372,235.000 72.372 C 234.679 72.372,234.548 72.406,234.708 72.448 M205.417 81.167 C 205.775 81.533,206.105 81.833,206.151 81.833 C 206.197 81.833,205.941 81.533,205.583 81.167 C 205.225 80.800,204.895 80.500,204.849 80.500 C 204.803 80.500,205.059 80.800,205.417 81.167 M218.125 89.458 C 220.256 89.485,223.744 89.485,225.875 89.458 C 228.006 89.432,226.262 89.410,222.000 89.410 C 217.737 89.410,215.994 89.432,218.125 89.458 " stroke="none" fill="#467b7c" fill-rule="evenodd"></path><path id="path8" d="" stroke="none" fill="#0444cc" fill-rule="evenodd"></path></g></svg>